<?xml version="1.0" encoding="UTF-8"?>
<svg id="Layer_1" data-name="Layer 1" xmlns="http://www.w3.org/2000/svg" xmlns:xlink="http://www.w3.org/1999/xlink" viewBox="0 0 135.27 143.63">
  <defs>
    <style>
      .cls-1 {
        opacity: .7;
      }

      .cls-2 {
        fill: #820e1e;
      }

      .cls-2, .cls-3, .cls-4, .cls-5, .cls-6, .cls-7, .cls-8, .cls-9, .cls-10, .cls-11, .cls-12, .cls-13, .cls-14, .cls-15, .cls-16, .cls-17, .cls-18, .cls-19 {
        stroke-width: 0px;
      }

      .cls-3 {
        fill: #2e5c2b;
      }

      .cls-4 {
        fill: #193516;
      }

      .cls-5 {
        fill: #a99d67;
      }

      .cls-6 {
        fill: #8c8c8c;
      }

      .cls-7 {
        fill: #5e5d5b;
      }

      .cls-8 {
        fill: none;
      }

      .cls-20 {
        clip-path: url(#clippath-1);
      }

      .cls-9 {
        fill: #4c4642;
      }

      .cls-10 {
        fill: #bdb37a;
      }

      .cls-11 {
        fill: #1e3e1a;
      }

      .cls-21 {
        opacity: .32;
      }

      .cls-22 {
        clip-path: url(#clippath);
      }

      .cls-23 {
        opacity: .76;
      }

      .cls-12 {
        fill: #c1d5c8;
      }

      .cls-13 {
        fill: #254721;
      }

      .cls-14 {
        fill: #2c4e29;
      }

      .cls-15 {
        fill: #dae0dc;
      }

      .cls-24 {
        opacity: .67;
      }

      .cls-16 {
        fill: #60060e;
      }

      .cls-17 {
        fill: #132c0d;
      }

      .cls-18 {
        fill: #57524f;
      }

      .cls-19 {
        fill: #39332f;
      }
    </style>
    <clipPath id="clippath">
      <path class="cls-8" d="m81.08,101.34c.12-.78.24-1.51.36-2.14h-.16s0,0,0,0l-8.24.13c-2.86.75-5.73,1.32-8.63,1.86-1.35.25-2.71.47-4.07.7-1.36-.23-2.72-.45-4.07-.7-2.91-.54-5.77-1.11-8.63-1.86l-8.24-.13s0,0,0,0h-.16c.11.63.23,1.36.36,2.14-.27.36-1.52-3.19-.76-.54.74,2.56,2.52,26.37,3.83,27.52.51.45,1.7,1.03,3.11,1.58,1.22.79,3.16,1.28,5.3,1.62.28.06.54.11.78.14.1.01.21.01.31.03.41.06.83.11,1.24.16,4.36.53,10.29.53,15.41-.19,2.68-.38,7.95-2.25,9.19-3.34,1.31-1.15,3.09-24.96,3.83-27.52.76-2.64-.5.91-.76.55Z"/>
    </clipPath>
    <clipPath id="clippath-1">
      <path class="cls-8" d="m86.56,16.31c-.91-1.09-2.07-2-3.39-2.51-1.14-.44-2.37-.57-3.58-.7-2.38-.25-4.17-.34-6.19-1.53-2.01-1.19-4.2-2.03-6.46-2.61-4.58-1.16-9.43-1.15-14.03-.1-6.76,1.54-12.93,5.25-17.89,10.1-1.99,1.94-3.85,4.18-4.5,6.88-.42,1.77-.29,3.63-.12,5.44.37,4,.93,8.04,2.53,11.72,1.82,4.17,4.88,7.66,7.33,11.5,1.51,2.37,3.24,5.58,3.63,8.7-.29,1.37-.57,2.72-.84,4.04l.46.07c-1.09,3.69-1.94,7.39-2.65,11.24-.85,4.62-2.39,9.77-2.38,14.5,0,1.72,9.83,3.11,21.95,3.11s21.95-1.39,21.95-3.11c0-.61-.94-10.64-2.71-23.31.63-3.52,2.03-6.91,3.29-10.28,4.26-11.35,4.17-23.08,5.89-35.08.41-2.85-.45-5.86-2.29-8.06Z"/>
    </clipPath>
  </defs>
  <ellipse class="cls-15" cx="60.34" cy="131.9" rx="47.56" ry="11.72"/>
  <g>
    <g>
      <path class="cls-9" d="m81.08,101.34c.12-.78.24-1.51.36-2.14h-.16s0,0,0,0l-8.24.13c-2.86.75-5.73,1.32-8.63,1.86-1.35.25-2.71.47-4.07.7-1.36-.23-2.72-.45-4.07-.7-2.91-.54-5.77-1.11-8.63-1.86l-8.24-.13s0,0,0,0h-.16c.11.63.23,1.36.36,2.14-.27.36-1.52-3.19-.76-.54.74,2.56,2.52,26.37,3.83,27.52.51.45,1.7,1.03,3.11,1.58,1.22.79,3.16,1.28,5.3,1.62.28.06.54.11.78.14.1.01.21.01.31.03.41.06.83.11,1.24.16,4.36.53,10.29.53,15.41-.19,2.68-.38,7.95-2.25,9.19-3.34,1.31-1.15,3.09-24.96,3.83-27.52.76-2.64-.5.91-.76.55Z"/>
      <g class="cls-21">
        <g class="cls-22">
          <g class="cls-1">
            <path class="cls-6" d="m41.05,103.55c.29.41.44.87.54,1.33.1.46.13.92.14,1.38-.02.92-.14,1.82-.54,2.72-.4-.91-.45-1.83-.46-2.72.01-.9.09-1.76.32-2.71Z"/>
            <path class="cls-6" d="m44.86,109.71c.29.34.44.74.54,1.14.11.4.13.8.14,1.2-.02.8-.14,1.57-.54,2.35-.4-.79-.45-1.59-.46-2.35.01-.78.09-1.5.32-2.34Z"/>
            <path class="cls-6" d="m42.07,116.46c.57,1.03.75,2.16.8,3.28.02,1.12-.1,2.27-.65,3.32-.24-1.14-.31-2.2-.35-3.29-.02-1.09-.01-2.16.2-3.31Z"/>
            <path class="cls-6" d="m39.73,125.56c.29.21.46.48.59.76.14.27.21.56.27.84.09.58.09,1.13-.13,1.78-.54-.46-.73-1.04-.85-1.6-.09-.58-.09-1.12.12-1.77Z"/>
            <path class="cls-6" d="m50.58,103.84c.29.21.44.51.54.8.1.3.12.6.12.9-.04.59-.2,1.16-.66,1.67-.32-.61-.35-1.17-.34-1.71.03-.55.13-1.02.34-1.66Z"/>
            <path class="cls-6" d="m51.46,115.87c.39.33.58.83.7,1.29.12.47.15.95.15,1.42-.04.94-.22,1.85-.7,2.72-.31-.95-.31-1.86-.3-2.75.02-.44.04-.88.08-1.32.03-.44.08-.86.08-1.36Z"/>
            <path class="cls-6" d="m38.4,110.3c.3.26.46.6.57.93.12.33.16.68.19,1.01.02.68-.07,1.35-.47,2.01-.4-.67-.49-1.32-.53-1.97-.02-.66.04-1.26.24-1.99Z"/>
            <path class="cls-6" d="m47.5,123.5c.48.67.6,1.4.65,2.1.02.71-.04,1.41-.36,2.15-.47-.67-.59-1.4-.64-2.1-.02-.72.04-1.41.35-2.15Z"/>
            <path class="cls-6" d="m57.18,106.34c.39.64.48,1.29.46,1.94-.05.65-.22,1.34-.76,1.87-.23-.71-.26-1.3-.24-1.93.05-.62.14-1.25.53-1.89Z"/>
            <path class="cls-6" d="m61.29,122.33c.33.26.53.62.66.97.14.36.2.73.23,1.1.03.74-.05,1.47-.45,2.18-.4-.72-.49-1.42-.55-2.12-.04-.71,0-1.35.11-2.14Z"/>
            <path class="cls-6" d="m56.74,125.7c.39.46.48.93.5,1.39-.01.46-.1.93-.5,1.39-.4-.46-.49-.93-.5-1.39.02-.46.11-.93.5-1.39Z"/>
            <path class="cls-6" d="m66.14,106.19c.36.1.62.38.8.67.19.3.28.63.34.95.08.66-.01,1.29-.41,1.9-.4-.61-.49-1.21-.58-1.76-.08-.57-.09-1.05-.15-1.76Z"/>
            <path class="cls-6" d="m57.92,114.99c.46.27.62.62.71.99.06.37.05.76-.27,1.21-.46-.29-.62-.63-.71-.99-.06-.37-.04-.75.27-1.21Z"/>
            <path class="cls-6" d="m71.71,122.48c.56.66.75,1.45.86,2.21.07.77.05,1.54-.27,2.34-.47-.72-.63-1.48-.72-2.23-.07-.76-.07-1.49.14-2.32Z"/>
            <path class="cls-6" d="m65.55,115.14c.29.23.45.56.55.87.11.31.14.63.16.94,0,.63-.09,1.21-.41,1.85-.47-.57-.56-1.23-.59-1.83,0-.62.09-1.16.29-1.84Z"/>
            <path class="cls-6" d="m80.81,104.13c.47.56.59,1.2.63,1.82,0,.62-.09,1.24-.48,1.85-.4-.61-.48-1.22-.52-1.82,0-.61.05-1.19.37-1.85Z"/>
            <path class="cls-6" d="m73.62,108.98c.39.64.48,1.27.5,1.91-.01.64-.1,1.27-.5,1.91-.4-.64-.49-1.27-.5-1.91.02-.64.11-1.27.5-1.91Z"/>
            <path class="cls-6" d="m80.22,121.6c.49.8.67,1.6.79,2.43.08.83.09,1.66-.2,2.56-.49-.76-.68-1.59-.79-2.43-.08-.84-.09-1.69.2-2.56Z"/>
            <path class="cls-6" d="m84.77,112.35c.39.59.48,1.17.5,1.76-.01.59-.1,1.17-.5,1.76-.4-.59-.49-1.17-.5-1.76.02-.59.11-1.17.5-1.76Z"/>
            <path class="cls-6" d="m76.99,119.69c-.46-.65-.63-1.36-.72-2.06-.06-.71-.05-1.44.28-2.19.47.67.63,1.36.72,2.06.06.71.04,1.43-.28,2.19Z"/>
            <path class="cls-6" d="m70.98,102.67c.26.24.39.53.48.82.1.29.12.58.13.87-.02.58-.14,1.17-.61,1.68-.32-.61-.38-1.14-.39-1.69.02-.55.1-1.07.39-1.68Z"/>
            <path class="cls-6" d="m68.48,129.81c-.29-.54-.37-.99-.37-1.48.03-.48.12-.97.51-1.46.4.49.48.99.48,1.49-.02.25-.05.5-.15.75-.09.24-.23.5-.48.7Z"/>
            <path class="cls-6" d="m84.33,132.75c-.3-.66-.37-1.23-.37-1.84.03-.6.12-1.21.52-1.82.4.61.48,1.23.48,1.85-.03.61-.15,1.26-.63,1.82Z"/>
            <path class="cls-6" d="m76.41,127.61c.29.34.45.75.54,1.14.1.4.13.8.14,1.2-.02.8-.14,1.57-.54,2.35-.39-.79-.45-1.59-.46-2.36.01-.78.1-1.5.32-2.34Z"/>
            <path class="cls-6" d="m51.32,132.16c-.39-.71-.47-1.44-.45-2.16.06-.72.2-1.47.74-2.09.24.77.28,1.44.25,2.15-.05.7-.15,1.4-.55,2.11Z"/>
          </g>
        </g>
      </g>
    </g>
    <g>
      <path class="cls-18" d="m60.41,93.18c5.01-.04,12.23.1,23.32.25-.13,1.27.07,3.08-.64,5.07-.29.82.07,2.77-.79,3.35-1.05.72-4.4,1.32-5.77,1.56-5.02.88-10.1,1.07-15.22,1.22-.33.02-.62.03-.89.02-.25,0-.55,0-.88-.02-5.13-.14-10.22-.34-15.24-1.22-1.38-.24-4.87-1.07-5.92-1.78-.68-.47-.5-1.66-.55-2.53-.01-.23-.61-4.41-.74-5.68,11.09-.15,18.31-.29,23.32-.25Z"/>
      <path class="cls-7" d="m60.42,96.69c5.98,0,11.62-.31,15.88-.87,4.94-.65,7.45-1.56,7.45-2.7s-2.51-2.05-7.45-2.7c-4.26-.56-9.9-.87-15.88-.87s-11.62.31-15.88.87c-4.94.65-7.45,1.56-7.45,2.7s2.51,2.05,7.45,2.7c4.26.56,9.9.87,15.88.87Z"/>
      <ellipse class="cls-19" cx="60.42" cy="93.04" rx="21.95" ry="3.11"/>
    </g>
    <g>
      <g>
        <g>
          <g>
            <path class="cls-16" d="m88.53,28.67c7.45-.96,6.43,5.86,10.75,9.57,2.97,2.47,6.86,3.07,9.84,5.68,2.97,2.47,4.11,5.93,5.26,9.53,1.14,3.46,3.93,5.54,5.33,8.84,1.05,2.51.11,4.24-.21,6.74-.31,2.63,1.11,4.7,1.76,7.24.51,2.56.78,5.55.88,8.15-3.22-5.19-6.84-10.34-11.09-14.75-2.71-2.63-6.26-3.95-9.09-6.44-1.94-1.74-1.88-4.08-3.98-6.08-3.43-2.98-8.05-4.06-11.97-6.45-2.89-1.65-4.05-3.74-6.28-5.73-3.72-3.22-10.29-6.05-6.01-11.79,4.87-6.75,8.06,5.71,12.2,4.5,2.66-.93-2.86-7.28.16-8.79l2.45-.22Z"/>
            <g>
              <path class="cls-5" d="m114.38,53.45c1.05,2.58,3.09,4.44,4.66,6.76.39.58.76,1.19,1.05,1.85.3.66.51,1.39.56,2.13.13,1.5-.33,2.88-.54,4.19-.29,1.3-.16,2.55.26,3.83.38,1.28.96,2.54,1.26,3.95.46,2.76.61,5.51.52,8.27-.17-1.37-.31-2.73-.53-4.08-.19-1.35-.42-2.71-.73-4.01-.38-1.26-.95-2.5-1.41-3.84-.23-.67-.4-1.38-.46-2.11-.07-.73,0-1.49.13-2.18.25-1.39.66-2.68.58-3.95-.03-1.26-.66-2.46-1.32-3.63-.68-1.16-1.51-2.25-2.27-3.41-.74-1.17-1.41-2.41-1.74-3.76Z"/>
              <path class="cls-5" d="m112.65,71.38l-1.61-1.63c-.56-.52-1.16-.99-1.78-1.43-1.25-.88-2.59-1.61-3.91-2.39-1.32-.79-2.63-1.61-3.81-2.68-1.21-1.13-1.71-2.71-2.43-3.98-.36-.64-.8-1.23-1.32-1.72-.54-.47-1.14-.93-1.77-1.33-1.25-.82-2.62-1.47-4.01-2.1-2.78-1.25-5.69-2.36-8.21-4.36-1.22-1.03-2.21-2.24-3.24-3.33-1.02-1.11-2.2-2-3.44-2.92-1.22-.92-2.48-1.85-3.56-3.04-1.09-1.13-1.89-2.85-1.55-4.52.17-.81.5-1.57.94-2.23.43-.67.89-1.31,1.49-1.86.59-.54,1.38-1,2.26-.98.88.03,1.62.49,2.22.99,1.2,1.03,2.08,2.3,3.07,3.46.49.58,1,1.16,1.59,1.63.58.48,1.29.86,2.07.78-.77.14-1.54-.2-2.16-.65-.63-.45-1.17-1.01-1.7-1.57-1.05-1.12-2-2.35-3.18-3.26-.58-.45-1.24-.81-1.92-.81-.67,0-1.3.38-1.82.88-.99,1.05-1.85,2.38-2.1,3.76-.22,1.4.43,2.76,1.43,3.81,1,1.08,2.23,1.98,3.45,2.89,1.23.9,2.52,1.85,3.59,2.99,1.08,1.12,2.06,2.28,3.19,3.23,2.28,1.86,5.17,3.02,7.95,4.3,1.4.65,2.8,1.33,4.11,2.2.66.43,1.28.9,1.88,1.45.58.59,1.04,1.26,1.41,1.96.73,1.4,1.16,2.87,2.2,3.9,1.06,1.03,2.35,1.89,3.62,2.71,1.28.84,2.59,1.65,3.81,2.6.61.48,1.19.98,1.73,1.53l1.51,1.74Z"/>
            </g>
          </g>
          <g>
            <path class="cls-2" d="m93.19,40.42c1.2,1.26,2.33,2.58,3.46,3.9,1.11,1.34,2.19,2.7,3.26,4.08,2.14,2.75,4.14,5.59,6.15,8.42l5.96,8.53c.99,1.43,1.98,2.84,3.02,4.23,1.01,1.41,2.08,2.77,3.19,4.11-2.55-2.38-4.71-5.14-6.83-7.89-2.13-2.75-4.15-5.58-6.16-8.41l-5.95-8.54c-1.99-2.84-4.03-5.64-6.1-8.43Z"/>
            <path class="cls-2" d="m105.14,55.94c1.87,1.14,3.78,2,5.7,3.03.95.53,1.9,1.08,2.77,1.76.87.67,1.68,1.47,2.25,2.42-1.73-1.34-3.59-2.28-5.49-3.3-.94-.52-1.9-1.05-2.8-1.68-.9-.62-1.76-1.34-2.43-2.22Z"/>
            <path class="cls-2" d="m104.17,55.57c.52,1.41.66,2.86.82,4.27.14,1.43.25,2.79.43,4.27-.47-.59-.78-1.29-.99-2-.23-.71-.35-1.44-.43-2.17-.13-1.47-.09-2.91.17-4.37Z"/>
            <path class="cls-2" d="m99.86,49.41c.51.82.47,1.81.28,2.66-.22.86-.58,1.66-1.23,2.34-.1-.94.08-1.76.26-2.57.2-.81.4-1.55.69-2.43Z"/>
            <path class="cls-2" d="m100.28,48.9l3.93,1.51c.65.27,1.31.55,1.94.91.63.35,1.24.78,1.73,1.33-1.4-.42-2.7-.79-4.04-1.32-1.3-.54-2.67-1.24-3.56-2.43Z"/>
          </g>
        </g>
        <g>
          <path class="cls-16" d="m59.69,28.26c-2.77-2.09-4.28,5.54-5.26,7.05-1,1.54-2.34,2.94-3.14,4.62-.6,1.26-.55,2.67-.89,4.01-.42,1.65-.46,3.81-1.11,5.31-.67,1.54-2.47,2.3-3.4,3.67-1.41,2.07-2.11,4.67-2.43,7.08-.44,3.36-.8,5.8-2.43,8.75-2.16,3.92-3.69,9.36-3.24,13.87.97-.63,1.71-2.43,2.31-3.43,1.39-2.33,2.59-4.59,4.82-6.26,2.55-1.91,4.38-3.87,6.44-6.35,1.31-1.57,1.46-2.28,1.65-4.37.21-2.28.79-3.84,1.97-5.8,2.13-3.54,3.09-7.42,4.98-11.05,1.53-2.94,4.17-4.27,6.32-6.6,3.09-3.34.83-5.89.75-9.47-1.98-.84-2.62,1.55-4.16,1.76-1.36.19-1.55-1.43-3.17-2.8Z"/>
          <g>
            <path class="cls-5" d="m37.79,82.62c.78-.63,1.17-1.57,1.62-2.44.42-.9.92-1.77,1.38-2.64.97-1.72,2.08-3.45,3.68-4.76,1.55-1.23,3-2.51,4.32-3.97.66-.72,1.3-1.46,1.93-2.22.63-.76,1.22-1.49,1.46-2.33.27-.85.29-1.82.44-2.85.14-1.01.4-2.02.8-2.97.39-.95.92-1.84,1.42-2.67.48-.84.93-1.71,1.35-2.59.84-1.77,1.55-3.62,2.37-5.43.42-.9.87-1.79,1.38-2.65.51-.86,1.17-1.63,1.9-2.29-.65.74-1.23,1.55-1.67,2.42-.43.88-.81,1.79-1.16,2.71-.73,1.83-1.35,3.71-2.12,5.55-.38.92-.81,1.83-1.3,2.71-.5.87-.98,1.69-1.33,2.58-.35.88-.58,1.81-.7,2.76-.12.93-.12,1.97-.43,3.01-.33,1.07-1.05,1.91-1.68,2.65-.64.76-1.31,1.5-1.99,2.23-1.37,1.45-2.89,2.81-4.51,3.95-1.54,1.14-2.69,2.75-3.74,4.41-.53.84-1.09,1.65-1.57,2.51-.5.84-1,1.77-1.85,2.31Z"/>
            <path class="cls-5" d="m50.79,41.67c-.07,1.14-.23,2.3-.37,3.4-.14,1.12-.21,2.27-.47,3.43-.13.57-.33,1.19-.72,1.71-.37.52-.82.92-1.25,1.31-.43.38-.87.73-1.23,1.12-.36.37-.63.81-.91,1.3-1.09,1.9-1.66,4.09-2.03,6.3-.2,1.12-.39,2.26-.67,3.38-.31,1.11-.67,2.21-1.2,3.23.67-2.19.89-4.44,1.1-6.7.2-2.3.76-4.62,1.93-6.7.15-.26.31-.51.48-.75.18-.26.38-.51.6-.72.43-.44.89-.8,1.32-1.16.43-.36.85-.71,1.16-1.11.32-.39.51-.86.68-1.39.33-1.04.49-2.18.73-3.3l.85-3.32Z"/>
          </g>
          <g>
            <path class="cls-2" d="m43.52,70.47c1.84-2.24,3.26-4.77,3.9-7.54.32-1.38.55-2.78.7-4.22.18-1.45.47-2.91.93-4.32.48-1.4,1.15-2.77,2.07-3.96.46-.6,1.01-1.14,1.59-1.61.58-.47,1.19-.86,1.71-1.31.53-.44.96-.96,1.31-1.56.33-.59.62-1.29.97-1.92.7-1.27,1.42-2.51,1.98-3.85-.34,1.41-.99,2.73-1.54,4.06-.3.66-.53,1.31-.86,2.01-.33.68-.8,1.31-1.35,1.83-.55.53-1.14.95-1.67,1.41-.53.46-.99.95-1.4,1.51-.83,1.11-1.44,2.38-1.88,3.71-.45,1.33-.73,2.72-.94,4.13-.21,1.43-.46,2.89-.9,4.29-.44,1.4-1.03,2.77-1.82,4.01-.81,1.23-1.76,2.34-2.82,3.33Z"/>
            <path class="cls-2" d="m53.87,49.59c.32.32.48.73.58,1.14.1.41.11.83.08,1.24-.09.81-.34,1.61-.93,2.26-.18-.86-.12-1.6-.07-2.35.08-.75.18-1.43.34-2.28Z"/>
          </g>
        </g>
        <g>
          <path class="cls-16" d="m72.85,45.79c-2.42-.28-6.35-1.28-7.78,1.4-.97,1.81.1,3.85.97,5.42,1.61,2.92,1.37,5.33,2.29,8.34.63,2.04,2.57,2.69,3.68,4.44,1.3,2.05,1.14,4.91,2.08,7.14,1.25,2.96,3.91,5.13,5.54,7.95,2.32,4.02,2.74,8.71,5.04,12.69.31-3.2-.26-6.41.52-9.58.92-3.74,1.28-6.73.91-10.65-.31-3.29.67-6.01.64-9.23-.01-1.42-.89-3.09-.76-4.44.12-1.25,1.24-2.41,1.59-3.61.95-3.21-.12-5.46-1.25-8.3-1.09-2.74-.52-4.22-4.02-4.56-1.2-.12-2.49.28-3.64.11-.54-.07-1.96-.88-2.31-.83-1.79.28-2,2.19-3.5,3.69Z"/>
          <g>
            <path class="cls-5" d="m72.02,65.39c.61.59,1.02,1.39,1.29,2.19.28.8.44,1.62.6,2.42.15.8.31,1.57.53,2.32.23.76.54,1.51.83,2.31-.63-.56-1.16-1.24-1.55-2.01-.4-.78-.62-1.62-.79-2.43-.32-1.65-.39-3.2-.91-4.8Z"/>
            <path class="cls-5" d="m84.27,43.29c-1.08-.32-2.18-.31-3.25-.13-.54.08-1.1.19-1.69.22-.31,0-.57.02-.95-.07-.32-.09-.58-.19-.85-.3l-.76-.31c-.12-.04-.25-.09-.33-.11-.05-.01-.05,0-.01-.01l-.16.04c-.43.11-.77.36-1.09.75-.61.78-1.15,1.89-2.05,2.69l-.15.14-.16-.03c-1.44-.24-2.78-.64-4.21-.79.71-.13,1.44-.12,2.16-.11.72.03,1.44.09,2.14.14l-.32.11c.34-.39.63-.83.91-1.29.28-.47.54-.97.92-1.46.36-.48.94-.98,1.61-1.11l.25-.05c.18-.02.32.01.4.03.18.05.31.1.46.16l.78.35c.25.12.5.24.71.31.16.06.46.08.71.09.52.03,1.07-.02,1.64-.04.56-.02,1.17.01,1.72.16.55.13,1.12.3,1.58.62Z"/>
            <path class="cls-5" d="m84.78,86.85c-.08-.88-.05-1.77.03-2.66.13-.9.3-1.73.43-2.6.27-1.72.47-3.43.49-5.15.03-.86,0-1.72-.04-2.59-.04-.84-.13-1.78-.04-2.67.11-1.8.58-3.5.96-5.22,0,1.77-.21,3.53-.18,5.24.01.86.11,1.68.21,2.58.08.89.11,1.78.09,2.67-.05,1.79-.3,3.57-.73,5.28-.2.86-.49,1.72-.71,2.54-.24.83-.37,1.7-.51,2.57Z"/>
          </g>
          <g>
            <path class="cls-2" d="m74.58,46.81c1.24,2.78,2.47,5.59,3.3,8.56.86,2.98,1.02,6.08,1.45,9.06.19,1.5.47,2.95.9,4.41.39,1.47.82,2.94,1.17,4.43.36,1.49.69,2.98.95,4.49.22,1.52.4,3.04.41,4.57-.45-3.02-1.22-5.95-2.1-8.86l-1.33-4.37c-.46-1.47-.77-3.01-.98-4.53-.41-3.05-.54-6.08-1.2-9.01-.65-2.94-1.69-5.82-2.55-8.75Z"/>
            <path class="cls-2" d="m68.87,48.26c1.37-.56,2.96-.4,4.33.18.68.31,1.32.71,1.85,1.25.53.52.95,1.17,1.15,1.88-1.08-.98-2.17-1.68-3.39-2.21-1.22-.54-2.49-.87-3.93-1.1Z"/>
            <path class="cls-2" d="m76.15,51.11c-.34-.49-.49-1.13-.4-1.77.07-.64.39-1.23.76-1.71.39-.47.84-.86,1.33-1.18.48-.32.99-.58,1.55-.79-.61,1.04-1.47,1.78-2.1,2.59-.33.4-.59.81-.79,1.27-.19.46-.29.98-.35,1.58Z"/>
            <path class="cls-2" d="m76.06,52.75c-.8,1.15-1.39,2.26-2.07,3.43-.35.57-.71,1.16-1.15,1.7-.44.54-.94,1.05-1.57,1.39.64-1.24,1.16-2.41,1.86-3.6.36-.58.74-1.17,1.23-1.68.48-.52,1.04-.98,1.7-1.24Z"/>
            <path class="cls-2" d="m76.53,52.71c1.36.38,2.6.88,3.82,1.53.6.34,1.19.7,1.73,1.16.54.45,1.04.96,1.39,1.59-1.25-.66-2.4-1.23-3.6-1.87-1.17-.66-2.39-1.35-3.34-2.41Z"/>
            <path class="cls-2" d="m77.97,60.77c-.21,1.77-.54,3.46-.88,5.16-.36,1.7-.75,3.37-1.22,5.09-.18-.88-.18-1.78-.12-2.67.05-.89.19-1.76.36-2.63.19-.86.41-1.72.72-2.55.3-.83.65-1.66,1.14-2.41Z"/>
            <path class="cls-2" d="m78.18,60.52c.47.68.96,1.28,1.46,1.9.5.61.99,1.24,1.48,1.86.48.64.95,1.28,1.38,1.97.43.68.84,1.4,1.09,2.19-1.19-1.12-2.28-2.27-3.26-3.56-.48-.65-.95-1.32-1.33-2.04-.38-.72-.73-1.5-.81-2.33Z"/>
            <path class="cls-2" d="m81.14,72.41c.93.84,1.67,1.78,2.31,2.8.31.52.61,1.04.84,1.61.23.56.47,1.16.45,1.81-.38-.5-.77-.93-1.13-1.42-.37-.47-.7-.97-1.02-1.47-.31-.51-.61-1.03-.86-1.58-.25-.55-.5-1.12-.6-1.75Z"/>
          </g>
        </g>
        <g>
          <path class="cls-16" d="m.94,72.6c.12-1.43,1.55-2.11,2.8-2.97,2.07-1.27,3.91-2.23,5.83-3.99.65-.75,1.34-1.97,2.18-2.54,1.06-.87,2.19-.45,3.24-1.16,1.85-.96,3.09-4.07,4.02-5.75,2.5-3.95,3.97-9.76,8.72-12.56,1.85-.96,4.23-1.4,5.91-2.7,1.69-1.46,2.84-3.44,4.53-4.9,4.04-3.66,10.12-6.02,15.77-7.94,6.05-2.05,10.65-5.34,16.35-7.89-6.37-3.43-15.62,1.7-22.45,1.28,3.58-5.14,12.38-7.27,16.16-12.56-5.77-1.3-11.35,2.07-16.34,3.25-2.21.61-4.32.11-6.52.56-2.21.61-3.72,2.25-5.91,2.7-1.81.49-3.71-.16-5.56.8-2.47,1.39-2.88,3.92-5.16,5.33-2.91,2-6.78,1.34-8.99,4.36-2.19,2.7-1.49,5.96-2.15,9.11-.93,3.93-4.31,6.84-5.07,11.11-.76,4.26-1.85,7.86-3.57,11.88-2.34,4.45-4.4,12.45-4.74,16.43l.94-1.84Z"/>
          <g>
            <path class="cls-2" d="m45.13,23.37c-2.39.28-4.73.85-6.97,1.69-2.25.81-4.41,1.84-6.47,3.03-4.12,2.38-7.97,5.29-11.19,8.79-1.64,1.71-3.05,3.62-4.11,5.73-.52,1.05-.97,2.15-1.29,3.28l-.45,1.74c-.18.58-.36,1.17-.56,1.74-1.65,4.57-4.11,8.82-7.19,12.52,1.38-1.97,2.64-4.02,3.7-6.17,1.1-2.13,2.04-4.33,2.76-6.6.37-1.15.6-2.26.92-3.47.32-1.19.77-2.34,1.3-3.45,1.07-2.21,2.53-4.23,4.19-6.01,3.36-3.53,7.27-6.49,11.55-8.78,4.27-2.25,8.97-3.91,13.81-4.05Z"/>
            <path class="cls-2" d="m17.45,27.19c1.84-.74,3.81-1.06,5.79-1.05,1.97.03,4.01.43,5.7,1.5-1.95-.31-3.81-.49-5.71-.5-1.9-.04-3.8.09-5.78.05Z"/>
            <path class="cls-2" d="m28.61,20.06c1.31.32,2.5.75,3.68,1.35.58.32,1.15.67,1.66,1.11.51.44.97.97,1.23,1.6-1.14-.71-2.22-1.24-3.36-1.83-1.11-.61-2.29-1.23-3.21-2.24Z"/>
            <path class="cls-2" d="m41.47,16.04c.49.78.67,1.58.78,2.39.08.82.09,1.64-.21,2.51-.49-.76-.67-1.57-.78-2.39-.08-.82-.09-1.66.21-2.51Z"/>
            <path class="cls-2" d="m43.03,24.8c.65-.34,1.34-.32,1.98-.14.63.2,1.24.58,1.55,1.26-.73,0-1.27-.14-1.84-.3-.55-.18-1.1-.37-1.69-.81Z"/>
            <path class="cls-2" d="m34.53,27.85c.45.81.59,1.64.73,2.44.11.81.19,1.57.17,2.49-.71-.61-1.02-1.5-1.16-2.35-.11-.86-.07-1.72.26-2.58Z"/>
            <path class="cls-2" d="m29.37,30.37c.19,1.95-.23,3.88-.74,5.7-.54,1.84-1.17,3.59-1.86,5.4-.09-1.95.39-3.85.9-5.67.54-1.83,1.11-3.59,1.7-5.43Z"/>
            <path class="cls-2" d="m20.56,40.94c0,1.67-.34,3.27-.66,4.84-.35,1.57-.7,3.11-1.15,4.71-.35-1.64-.16-3.33.17-4.92.36-1.6.87-3.14,1.64-4.63Z"/>
            <path class="cls-2" d="m10.45,47.35c.67-1.37,1.76-2.43,2.86-3.38,1.13-.94,2.28-1.77,3.58-2.54-.73,1.34-1.83,2.36-2.93,3.31-1.13.93-2.26,1.78-3.51,2.61Z"/>
            <path class="cls-2" d="m15.61,33.24c.56-.7,1.45-.97,2.25-1.05.83-.06,1.61.03,2.42.37-.77.45-1.58.54-2.33.62-.77.05-1.46.08-2.34.06Z"/>
          </g>
          <g>
            <path class="cls-5" d="m13.38,35.03c-.35,2.05-1.42,3.91-2.42,5.69-1.02,1.78-1.91,3.62-2.23,5.57-.64,4.1-1.88,8.12-3.57,11.9v.02s-.02.01-.02.01c-.98,1.85-1.8,3.83-2.51,5.84-.7,2.01-1.37,4.05-1.95,6.12.32-2.12.77-4.23,1.38-6.3.61-2.07,1.28-4.13,2.27-6.08l-.02.03c.77-1.9,1.49-3.81,2.07-5.76.6-1.95,1.07-3.94,1.46-5.94.38-2.13,1.5-3.99,2.61-5.71,1.11-1.74,2.31-3.41,2.91-5.39Z"/>
            <path class="cls-5" d="m64.01,8.91c-2.03-.32-4.09-.18-6.06.33-1.98.46-3.88,1.19-5.8,1.91-.96.36-1.93.73-2.92,1.02-.5.16-1,.28-1.5.42-.51.14-1.05.23-1.58.28-1.06.1-2.1.07-3.1.11-.5.02-.99.06-1.47.14-.46.06-.88.25-1.34.45-.89.39-1.74.95-2.68,1.44-.93.51-1.99.86-3.07.99-1.09.12-2.11,0-3.07.13-.96.11-1.81.48-2.54,1.13-1.48,1.22-2.3,3.37-4.21,4.47-1.81,1.15-3.93,1.35-5.88,1.91,1.9-.78,4.01-1.1,5.61-2.32,1.7-1.07,2.36-3.13,3.96-4.64.4-.37.84-.7,1.35-.95.51-.24,1.06-.38,1.6-.46,1.08-.15,2.12-.05,3.07-.17.95-.13,1.87-.44,2.73-.93.87-.47,1.73-1.06,2.72-1.51.49-.21,1.02-.43,1.58-.5.54-.08,1.07-.12,1.6-.13,1.05-.03,2.07.02,3.05-.06.97-.07,1.93-.36,2.92-.63.97-.29,1.94-.6,2.92-.92,1.95-.63,3.92-1.3,5.96-1.67,2.04-.36,4.17-.4,6.15.15Z"/>
            <path class="cls-5" d="m19,56.19c1.32-2.35,2.26-4.88,3.56-7.27,1.3-2.36,3.05-4.65,5.61-5.92,1.26-.59,2.55-.98,3.73-1.53.59-.28,1.15-.6,1.6-1,.47-.43.92-.91,1.34-1.42.86-1.01,1.67-2.11,2.69-3.08,1.01-.94,2.09-1.79,3.24-2.54,4.62-2.97,9.87-4.65,14.91-6.39,2.5-.94,4.91-2.14,7.3-3.38,2.41-1.21,4.8-2.46,7.31-3.46-4.83,2.38-9.28,5.48-14.32,7.55-1.26.54-2.55.96-3.8,1.41-1.26.46-2.51.93-3.75,1.45-2.47,1.02-4.88,2.19-7.09,3.65-1.11.71-2.16,1.52-3.14,2.4-.95.88-1.76,1.94-2.65,2.98-.45.52-.92,1.02-1.45,1.49-.56.49-1.19.82-1.82,1.12-1.26.59-2.58.94-3.78,1.45-2.35,1.06-4.14,3.2-5.5,5.47-1.42,2.27-2.46,4.79-3.98,7.03Z"/>
          </g>
        </g>
      </g>
      <g class="cls-20">
        <g>
          <path class="cls-17" d="m73.45,35.18c.77,2.96,1.06,6.05.75,9.11-.16,1.53-.46,3.04-.94,4.52-.48,1.46-1.04,2.7-1.37,3.86-.17.58-.27,1.12-.32,1.68-.04.58-.03,1.24-.03,1.99,0,.37-.01.76-.05,1.17-.03.42-.1.84-.16,1.2-.14.75-.32,1.46-.48,2.13-.17.67-.32,1.31-.43,1.93-.11.59-.16,1.27-.22,1.95-.11,1.35-.18,2.69-.13,4.01.01.33.03.66.06.98.02.29.07.6.13.92l.42,2.05c.14.73.22,1.53.14,2.38-.09.83-.35,1.59-.67,2.29-1.34,2.79-3.49,4.64-4.97,6.9l-4.78,6.84c-1.52,2.29-2.57,4.89-3.28,7.59.51-2.73,1.36-5.44,2.74-7.91l4.26-7.19c1.41-2.49,3.41-4.58,4.3-6.95.21-.58.36-1.17.38-1.73.01-.54-.08-1.13-.25-1.76l-.57-2.01c-.09-.36-.18-.74-.24-1.13-.06-.37-.11-.73-.15-1.1-.16-1.46-.2-2.9-.18-4.33.01-.71,0-1.42.09-2.21.07-.76.2-1.49.32-2.18.12-.69.23-1.35.3-1.97.03-.33.06-.6.05-.88,0-.29-.01-.59-.04-.92-.04-.65-.12-1.37-.12-2.19,0-.83.1-1.68.27-2.45.33-1.55.82-2.89,1.11-4.11.29-1.19.44-2.45.47-3.69.06-2.5-.36-5.01-1.18-7.39l4.79-1.42Z"/>
          <path class="cls-14" d="m55.62,55.74c1.45,1.93,3.18,3.68,4.23,5.98,1.08,2.35.82,5.01,1.29,7.18.12.54.3,1.02.57,1.45.26.43.64.88,1.02,1.37.38.49.79,1.07,1.08,1.75.26.58.48,1.16.7,1.73.43,1.11.87,2.26,1.4,3.06.31.47.68.99,1.02,1.57.17.3.34.61.5,1.01.04.09.08.2.11.33.04.11.07.24.09.4.05.27.08.73-.15,1.28l-2.71-1.28c-.13.26-.06.42-.07.39,0,0,.01,0,0-.04,0-.03,0-.06-.02-.11-.04-.17-.13-.41-.24-.65-.22-.49-.5-.99-.8-1.56-.66-1.31-.93-2.5-1.27-3.68-.16-.58-.31-1.15-.49-1.7-.14-.46-.38-.91-.69-1.41-.31-.5-.66-1.02-.97-1.66-.3-.64-.47-1.33-.55-1.98-.26-2.59.26-4.94-.51-7.16-.74-2.24-2.28-4.18-3.53-6.25Z"/>
          <path class="cls-17" d="m46.38,25.39c1.91,3.92,3.29,8.19,3.88,12.55.37,2.14.82,4.26,1.92,5.96,1.1,1.74,2.67,3.15,4.34,4.5l2.58,2.04c.8.67,1.62,1.17,2.55,1.66,1.83.96,4.02,1.76,5.96,3.35l.18.15c.05.04.28.28.34.36.18.23.28.41.36.57.17.33.3.62.42.91.23.57.41,1.12.59,1.66.35,1.09.64,2.16.92,3.26.55,2.18.99,4.42,1.23,6.71l-3.99.28c-.06-2.07-.3-4.17-.66-6.26-.18-1.04-.39-2.1-.63-3.12-.12-.51-.25-1.01-.39-1.47-.07-.23-.15-.44-.22-.6-.03-.08-.07-.14-.05-.13-.02-.03.11.11.06.06l-.13-.12c-1.35-1.33-3.27-2.24-5.23-3.44-.97-.6-1.97-1.33-2.79-2.13l-2.41-2.22c-1.62-1.51-3.24-3.19-4.33-5.26-1.13-2.1-1.4-4.41-1.61-6.58-.26-4.36-1.28-8.6-2.89-12.69Z"/>
          <path class="cls-11" d="m81.98,14.26c-1.4,5.19-1.38,10.57-1.52,15.91-.07,2.68-.22,5.37-.51,8.05-.27,2.67-.8,5.39-1.4,7.95-.52,2.57-.79,5.24-1.36,7.93-.28,1.29-.5,2.61-.87,3.98-.18.68-.41,1.37-.71,2.05-.08.18-.14.32-.26.53-.12.22-.26.42-.41.59-.29.35-.61.62-.91.85-.6.47-1.19.82-1.67,1.18-.5.35-.87.72-.98.99-.1.24-.15.72-.06,1.26.08.55.24,1.15.41,1.81.17.66.35,1.38.4,2.23,0,.22.02.43-.01.68l-.06.55-.07.93c-.04.66-.07,1.37-.19,2.14-.12.76-.34,1.62-.88,2.46l-2.48-1.69c.44-.56.62-1.81.75-3.13.04-.34.08-.69.13-1.06l.05-.28.02-.16c.02-.09.01-.22.02-.33,0-.48-.12-1.09-.25-1.72-.13-.64-.3-1.33-.38-2.12-.07-.78-.09-1.68.39-2.67.52-.93,1.23-1.42,1.82-1.83.61-.4,1.19-.72,1.66-1.06.24-.16.43-.33.58-.49.08-.08.13-.15.18-.22.05-.08.13-.24.2-.36.26-.53.49-1.11.68-1.71.39-1.2.67-2.51,1.02-3.82.66-2.52,1.06-5.18,1.73-7.82,1.54-5.13,2.26-10.37,2.64-15.7.4-5.31.64-10.76,2.29-15.87Z"/>
          <path class="cls-11" d="m50.58,23.08c.65,2.12.69,4.38.76,6.58.03,2.2.31,4.35.43,6.6.02.56.06,1.12.02,1.71-.03.55-.05,1.07-.03,1.59.04,1.03.22,2.04.55,3.01.66,1.93,1.91,3.63,3.41,5.07l-1.41,1.41c-1.59-1.68-2.94-3.69-3.6-5.98-.33-1.14-.49-2.33-.47-3.49,0-.58.06-1.17.11-1.71.05-.51.09-1.06.12-1.6.1-2.16.03-4.41.22-6.61.14-2.19.32-4.39-.11-6.57Z"/>
          <g>
            <path class="cls-17" d="m35.69,25.97c1.46,2.59,1.78,5.63,2.09,8.53.3,2.9.78,5.83,2.39,8.18,1.6,2.41,3.55,4.56,5.54,6.72.99,1.08,1.99,2.18,2.95,3.32.94,1.13,1.92,2.36,2.66,3.73,1.5,2.72,2.29,5.63,3.47,8.16,1.33,2.64,2.33,5.68,2.88,8.64.29,1.49.51,2.97.71,4.44l.15,1.1c.05.28.1.55.19.82.16.53.43,1.06.76,1.67.34.61.74,1.31,1.08,2.1.34.8.58,1.53.8,2.33.43,1.56.67,3.15.78,4.72l-4,.18c-.02-1.37-.14-2.7-.42-3.99-.13-.63-.32-1.31-.52-1.87-.21-.58-.5-1.17-.84-1.86-.33-.69-.69-1.5-.91-2.39-.11-.44-.18-.9-.22-1.35l-.09-1.09c-.12-1.45-.24-2.89-.44-4.29-.38-2.84-1.07-5.47-2.22-8.16-1.13-2.86-1.73-5.72-2.95-8.22-.59-1.25-1.38-2.39-2.25-3.56-.86-1.16-1.78-2.29-2.71-3.43-1.86-2.27-3.75-4.59-5.25-7.17-.77-1.32-1.29-2.78-1.57-4.25-.29-1.47-.39-2.96-.47-4.42-.15-2.92-.29-5.9-1.59-8.57Z"/>
            <path class="cls-17" d="m42.68,25.51c1.28,2.97,2.49,5.97,3.55,9.05.53,1.54,1.02,3.09,1.45,4.67.46,1.55.77,3.25,1.06,4.8.3,1.56.68,3.03,1.4,4.22.7,1.23,1.86,2.31,2.82,4.01.47.85.81,1.88.88,2.91.08.99.03,1.84,0,2.65-.1,1.65.1,2.41.82,3.51l-3.46,2.01c-.45-.86-.84-1.89-.96-2.97-.13-1.08,0-2.07.12-2.87.12-.79.22-1.55.24-2.18.02-.59-.09-1.15-.33-1.75-.48-1.2-1.58-2.52-2.34-4.18-.78-1.7-1.01-3.45-1.16-5.08-.14-1.66-.25-3.17-.54-4.76-.27-1.58-.58-3.15-.95-4.72-.73-3.13-1.63-6.24-2.59-9.33Z"/>
          </g>
          <path class="cls-17" d="m63.41,26.2c-.69,2.88-1.71,5.72-1.94,8.65-.11,1.45-.04,2.92.41,4.28.43,1.36,1.22,2.55,2.12,3.72.88,1.17,1.85,2.35,2.58,3.76.36.7.65,1.46.83,2.25.17.76.27,1.52.36,2.27.37,2.96.48,5.99,1.47,8.5l-1.87.72c-1.03-3.11-.92-6.15-1.16-9.06-.06-.73-.12-1.45-.24-2.14-.11-.67-.31-1.32-.6-1.96-.56-1.28-1.42-2.47-2.24-3.72-.83-1.23-1.64-2.6-2.02-4.12-.4-1.5-.37-3.06-.17-4.55.42-3,1.6-5.75,2.46-8.59Z"/>
          <path class="cls-11" d="m86.25,41.12c-.69.07-1.31.47-1.65,1.06-.34.58-.53,1.25-.61,1.93-.2,1.35-.16,2.73-.21,4.11-.03.69-.05,1.39-.2,2.1-.18.72-.47,1.33-.75,1.98-.57,1.27-1.26,2.48-1.97,3.67-1.41,2.37-2.93,4.68-3.88,7.18-.48,1.25-.77,2.53-.87,3.84-.1,1.32,0,2.67-.03,4.1-.03,1.42-.24,2.97-.91,4.33-.62,1.38-1.69,2.53-2.45,3.58l-2.52,3.29c-.99,1.19-2.17,2.06-3.17,2.91-.25.22-.5.43-.73.65-.22.21-.4.4-.54.61-.3.41-.45.84-.62,1.48-.16.63-.37,1.43-.71,2.16-.33.74-.79,1.41-1.14,1.94-.35.54-.57.98-.71,1.5-.17.61-.32,1.27-.45,1.91-.27,1.29-.45,2.6-.55,3.91l-2.98-.3c.18-1.43.44-2.85.79-4.24.18-.7.37-1.37.6-2.08.25-.81.71-1.59,1.14-2.17.89-1.16,1.29-1.91,1.68-3.3.2-.68.54-1.56,1.1-2.24.27-.34.58-.64.87-.89.28-.24.56-.46.84-.68,1.13-.87,2.21-1.61,3.03-2.52l2.65-3.15c.92-1.12,1.79-1.98,2.36-3.11.6-1.09.83-2.34.92-3.65.08-1.32.05-2.73.22-4.16.17-1.42.56-2.84,1.13-4.14,1.14-2.61,2.78-4.86,4.29-7.15.75-1.14,1.48-2.3,2.1-3.52.29-.6.62-1.24.8-1.85.17-.63.23-1.32.28-2,.11-1.37.13-2.76.4-4.12.12-.68.34-1.36.72-1.95.38-.59,1.04-.98,1.73-1.01Z"/>
        </g>
      </g>
      <g>
        <g>
          <path class="cls-13" d="m86.17,15.93c-2.62-3.69-8.89-5.05-11.79-8.79,2.25-1.3,7.95,2.47,10.06,3.7,1.79,1.06,3.79,1.92,5.7,2.94,2.04.98,3.06,2.99,4.94,4.3,3.27,2.37,7.51,2.75,10.53,5.62,2.67,2.57,2.45,4.85,4,8.06,1.34,3.01,4.62,4.13,6.24,7.18.71,1.42,1.1,3.5,2.17,4.8,1.15,1.55,4.05,2.32,5.09,4.8,1.75,4.16,3.36,6.48,4.9,10.52,1.06,2.96,3.53,6.15,5.39,8.7.71,1.01,1.51,1.85,1.86,2.97-.67-1.71-2.66-2.98-4.02-3.91-1.63-.98-.67-.52-2.19-1.54-2.99-1.91-9.15-2.84-11.89-5.66-2.51-2.48-4.72-6.58-7.76-8.19-4.19-2.34-7.42-3.49-12.49-6.77-3.67-2.38-5.07-6.28-8.57-8.57-3.27-1.95-4.52-3.51-7.18-6.07-2.55-2.61-3.38-2.74-6.74-4.11-1.96-.73-4.86-2.8-5.89-4.81-.71-1.42-.26-3.78-1.33-5.08-1.23-1.39-7.83-2.51-7.05-5.12.69-2.85,11.24.27,12.76.87,2.52.82,11.78,5.02,13.34,4.41l-.08-.25Z"/>
          <g>
            <path class="cls-10" d="m91.59,39.12c-.63-.67-1.28-1.32-1.98-1.9-.7-.6-1.48-1.03-2.29-1.49-1.6-.95-3.04-2.17-4.38-3.44l-2.01-1.9c-.66-.65-1.31-1.27-2.01-1.79-1.38-1.06-3.15-1.58-4.86-2.3-1.77-.77-3.33-1.87-4.66-3.26-.63-.71-1.28-1.49-1.52-2.53-.23-.97-.22-1.9-.36-2.76-.07-.43-.18-.84-.37-1.2-.17-.37-.48-.56-.86-.8-.77-.44-1.63-.78-2.46-1.17-.83-.4-1.68-.8-2.45-1.34-.39-.26-.74-.59-1.02-.97-.26-.41-.33-.91-.19-1.35-.09.46.04.91.31,1.27.3.33.64.62,1.04.84.78.46,1.63.79,2.49,1.11.85.34,1.72.64,2.58,1.07.4.21.92.53,1.16,1.01.27.45.41.93.52,1.4.2.94.24,1.87.45,2.69.19.77.76,1.47,1.36,2.1,1.23,1.25,2.75,2.31,4.36,2.98l2.56,1.05c.86.36,1.74.82,2.49,1.42.75.59,1.42,1.27,2.06,1.93.65.64,1.29,1.31,1.93,1.97,1.26,1.33,2.6,2.56,4.11,3.58,1.57.96,2.95,2.31,4.01,3.8Z"/>
            <path class="cls-10" d="m135.27,70.74c-.63-1.24-1.74-2.08-2.87-2.82-.57-.37-1.13-.76-1.73-1.08-.29-.16-.64-.37-.9-.61-.24-.19-.53-.38-.81-.56-1.13-.66-2.4-1.13-3.69-1.57-1.29-.45-2.6-.89-3.89-1.4-1.29-.53-2.58-1.14-3.72-2.03-.58-.46-1.07-.98-1.52-1.51-.46-.53-.89-1.08-1.29-1.63-.82-1.11-1.61-2.22-2.48-3.28-.84-1.07-1.79-2.05-2.94-2.81,1.27.56,2.33,1.51,3.31,2.49.95,1.01,1.82,2.08,2.71,3.13.89,1.01,1.77,2.12,2.79,2.87,1.04.78,2.26,1.35,3.52,1.85,2.49,1.06,5.21,1.68,7.64,3.27.29.21.57.41.84.67.24.24.47.4.77.6.59.37,1.14.8,1.69,1.22,1.05.88,2.16,1.87,2.59,3.21Z"/>
            <path class="cls-10" d="m85.56,16.23c.23-.02.48-.05.65-.15l-.06.13-.11-.24.02.04c-1.58-1.67-3.63-2.7-5.63-3.87-1.01-.58-2.02-1.17-2.98-1.88-.95-.7-1.86-1.5-2.52-2.49,1.88,1.42,3.94,2.37,5.98,3.5,1.02.57,2.04,1.18,2.98,1.9.93.73,1.82,1.6,2.39,2.66l.02.03h0s.05.27.05.27l.02.11-.08.02c-.27.06-.5,0-.73-.05Z"/>
          </g>
        </g>
        <g>
          <path class="cls-4" d="m129.9,64.23c-1.64-.34-3-1.45-4.17-2.61-1.17-1.19-2.18-2.52-3.09-3.91h0c-1.26-1.62-2.52-3.24-3.84-4.81-1.3-1.59-2.76-3.02-4.13-4.58-2.75-3.07-5.43-6.2-8.09-9.34l-7.93-9.46c-1.32-1.61-2.57-3.21-3.94-4.68-1.36-1.44-2.86-2.86-4.47-3.52l.75-1.85c2.19,1,3.65,2.61,5.06,4.18,1.38,1.59,2.61,3.28,3.84,4.89l7.6,9.72c2.55,3.23,5.12,6.43,7.75,9.59,1.29,1.58,2.72,3.08,3.98,4.73,1.28,1.62,2.48,3.3,3.68,4.96h0s0,.01,0,.01c.86,1.4,1.81,2.76,2.93,3.98,1.12,1.19,2.42,2.33,4.05,2.72Z"/>
          <g>
            <path class="cls-4" d="m90.17,20.1c0-1.4-.74-2.8-1.65-4.01-.93-1.22-2.05-2.32-3.21-3.36-1.17-1.04-2.41-2.01-3.65-2.98-1.24-.97-2.51-1.91-3.68-2.97,1.22.99,2.54,1.86,3.82,2.77,1.29.9,2.58,1.81,3.82,2.8,1.23.99,2.43,2.05,3.48,3.28,1.02,1.22,1.97,2.69,2.07,4.48h-1Z"/>
            <path class="cls-4" d="m90.54,21.11c-4.47-1.63-8.51-4.05-12.71-6.07-2.1-1.01-4.25-1.93-6.49-2.59-2.23-.66-4.56-1.05-6.91-1.04,2.34-.09,4.7.21,6.97.8,2.28.58,4.48,1.43,6.63,2.38,4.3,1.89,8.43,4.15,12.83,5.58l-.32.95Z"/>
            <path class="cls-4" d="m84.15,18.3c-2.1-.17-4.25-.07-6.38.2-2.12.29-4.24.73-6.22,1.59,1.91-1.01,4.02-1.63,6.14-2.08,2.13-.44,4.3-.71,6.51-.71l-.05,1Z"/>
            <path class="cls-4" d="m91.41,21.44c-.86-.15-1.74.07-2.47.6-.74.52-1.34,1.28-1.86,2.09-1.04,1.63-1.74,3.49-2.66,5.22.77-1.8,1.3-3.7,2.23-5.47.46-.88,1.02-1.75,1.84-2.44.8-.7,1.93-1.1,3.03-1l-.1.99Z"/>
            <path class="cls-4" d="m98.49,27.31c.05,2.65.13,5.3.33,7.95.2,2.64.51,5.28,1.09,7.88-.74-2.55-1.21-5.19-1.58-7.82-.36-2.64-.61-5.3-.83-7.95l1-.05Z"/>
            <path class="cls-4" d="m113.1,36.54c-2.2-.88-4.15-2.3-6.29-3.19-1.07-.41-2.23-.71-3.35-1.14-1.12-.42-2.25-.95-3.22-1.77l.67-.74c.78.77,1.78,1.34,2.84,1.82,1.06.49,2.16.86,3.27,1.37,2.15,1.09,3.96,2.62,6.09,3.65Z"/>
            <path class="cls-4" d="m104.72,25.1c-1.23-.07-2.41-.51-3.51-1.04-1.11-.54-2.16-1.17-3.24-1.72-1.07-.55-2.19-1.03-3.34-1.22-1.15-.19-2.3-.04-3.35.4l-.36-.93c1.24-.43,2.6-.51,3.86-.21,1.26.29,2.38.88,3.43,1.52,1.06.64,2.06,1.33,3.11,1.94,1.05.6,2.18,1.11,3.4,1.26Z"/>
            <path class="cls-4" d="m89.01,15.7c-.07.08.15-.01.25-.07.12-.07.25-.14.38-.23.25-.17.49-.35.7-.58-.06.31-.18.61-.32.9-.07.15-.14.29-.23.44-.12.15-.11.28-.46.48l-.32-.95Z"/>
            <path class="cls-4" d="m113.54,45.18c.22,2.48.96,5,1.06,7.57-.44-2.53-1.48-4.85-2.05-7.41l.99-.15Z"/>
            <path class="cls-4" d="m122.18,49.81c-1.44-1.12-3.01-2.05-4.67-2.73-1.66-.69-3.41-1.18-5.15-1.74l.34-.94c1.67.71,3.39,1.36,5.02,2.22,1.64.85,3.13,1.94,4.46,3.19Z"/>
          </g>
        </g>
        <g class="cls-24">
          <path class="cls-12" d="m90.18,26.79c.9-.26,1.9-.29,2.27.04,1.23,1.1-.26,2.11-1.22,2.19-.4.03-2.54-.08-2.69-.84-.12-.61.71-1.12,1.64-1.39Z"/>
          <path class="cls-12" d="m101.88,34.79c1.99.45,1.15,3.25-.89,2.61-1.76-.55-.99-2.67.89-2.61Z"/>
          <path class="cls-12" d="m91.43,30.07c.29,0,1.18.21,1.14.74-.05.61-1.45.54-1.83.45-1.34-.31-1.45-1.45.69-1.19Z"/>
          <path class="cls-12" d="m72.98,21.01c.37-.21.88-.3,1.14-.22.69.21.94.6.37,1.18-.32.32-1.4.41-1.77.04-.4-.41-.15-.77.25-.99Z"/>
          <path class="cls-12" d="m95.61,37.41c-1.69-1.51-2.84.6-.99,1.87.44.3,1.81,1.01,2.25.55.46-.48-.13-1.73-1.26-2.43Z"/>
          <path class="cls-12" d="m104.75,41.69c1.19,1.04,2.28,3.34.4,2.71-.85-.28-2.2-1.36-1.98-2.5.19-1,.9-.81,1.58-.22Z"/>
          <path class="cls-12" d="m122.2,51.43c-1.5-1.02-2.09,1.16-.81,1.9,1.55.9,2.78-.85.81-1.9Z"/>
          <path class="cls-12" d="m87.1,30.56c-.48.21-1.01.26-1.21.03-.65-.78.16-1.58.66-1.66.21-.03,1.35,0,1.43.55.06.45-.38.85-.88,1.08Z"/>
          <path class="cls-12" d="m101.93,29.73c-1.99-.45-1.15-3.25.89-2.61,1.76.55.99,2.67-.89,2.61Z"/>
          <path class="cls-12" d="m124.19,56.29c-.93.12-2.29-1.32-.64-1.43.86-.06,1.67.87.64,1.43Z"/>
          <path class="cls-12" d="m102.44,45.66c.2.88,2.17,1.69,1.92.31-.16-.87-1.94-1.71-1.92-.31Z"/>
          <path class="cls-12" d="m99.3,26.74c-.09-.06-.17-.14-.24-.24-.21-.29-.62-.98-.34-1.4.31-.47,1.09.28,1.3.64.64,1.06-.17,1.4-.73,1.01Z"/>
          <path class="cls-12" d="m103.85,39.25c.95.22,2.09-1.04.56-1.77-1.13-.54-2.02.89-.87,1.64.1.06.2.11.3.13Z"/>
          <path class="cls-12" d="m121.1,59.23c-.37.21-.88.3-1.14.22-.69-.21-.94-.6-.37-1.18.32-.32,1.4-.41,1.77-.04.4.41.15.77-.25.99Z"/>
          <path class="cls-12" d="m106.44,29.08c.89,1.07,1.52-.52.54-1.42-.23-.21-.95-.71-1.19-.35-.25.37.06,1.28.65,1.77Z"/>
          <path class="cls-12" d="m82.62,20.71c-.48-.67-.86-1.56-.57-1.94.54-.73,2.07.38,2.44.91.69.96.06,2.38-1.09,1.81-.22-.11-.52-.41-.78-.78Z"/>
          <path class="cls-12" d="m90.38,24.59c1.5,1.02,2.09-1.16.81-1.9-1.55-.9-2.78.85-.81,1.9Z"/>
          <path class="cls-12" d="m110.81,38.84c-.85-.49-1.63-1.2-1.7-1.68-.24-1.58,1.56-1.12,2.34-.47.33.27,1.89,1.91,1.52,2.48-.3.47-1.26.18-2.15-.33Z"/>
          <path class="cls-12" d="m76.85,23.96c-1.81-.91-.27-3.24,1.54-2.15,1.56.94.27,2.67-1.54,2.15Z"/>
          <path class="cls-12" d="m114.35,41.71c-.41.09-.93.05-1.16-.09-.61-.37-.76-.78-.05-1.16.39-.21,1.46-.02,1.72.41.28.47-.05.74-.5.84Z"/>
          <path class="cls-12" d="m107.66,47.37c.07.08.13.17.17.28.13.32.35,1.05-.04,1.36-.42.34-.98-.53-1.1-.91-.35-1.13.52-1.23.96-.73Z"/>
          <path class="cls-12" d="m70.73,16.47c-.58-1.2-1.6.09-.89,1.15.17.25.74.88,1.06.62.34-.27.28-1.18-.17-1.77Z"/>
          <path class="cls-12" d="m117.53,52.79c.5,1.45.31,3.83-1.01,2.34-.59-.67-1.22-2.24-.47-3.02.67-.68,1.18-.15,1.47.68Z"/>
          <path class="cls-12" d="m93.83,17.74c-1.18-1.31-2.32.52-1.28,1.52,1.27,1.21,2.91-.08,1.28-1.52Z"/>
        </g>
      </g>
      <g>
        <g>
          <path class="cls-13" d="m24.21,104.43c-2.03-5.84-2.8-10.49-2.37-16.67.41-6.05,3.9-10.23,7.07-15.17,3.43-5.35,4.29-11.57,6.89-17.39,1.72-3.85,5.68-5.91,7.65-9.59.69-1.29,1.1-2.7,1.48-4.1.35-1.29.87-1.96,1.62-3.05,1.74-2.53,3.59-4.97,5.45-7.4,1.11-1.46,2.27-2.95,3.84-3.88,1.47-.87,3.4-1.37,4.01-2.96.44-1.16,0-2.61.74-3.61.62-.85,1.8-1,2.71-1.53.14-.08.28-.18.35-.32.12-.23.03-.51-.09-.74-.49-.89-1.51-1.33-2.5-1.58-1.03-.26-2.34-.52-3.4-.31-.88.17-1.69.71-2.6.85,1.2-2.01,3.1-3.68,4.61-5.47,1.71-2.03,1.13-2.7.79-5.08-.31-2.18.03-5.68-2.88-6.36-1.74-.41-3.32,1.1-4.68,2.05-3.3,2.29-7.15,3.75-9.16,7.38-.31.56-.58,1.14-1.02,1.61-.96,1-2.46,1.2-3.84,1.33-.42.04-.85.08-1.21.29-.31.18-.55.48-.77.77-.77,1.05-1.43,2.18-1.95,3.38-.34.79-.63,1.61-1.15,2.29-1.32,1.73-3.99,2.38-4.61,4.46-.25.84-.09,1.74-.28,2.59-.27,1.21-1.2,2.17-2.23,2.85-1.04.68-2.2,1.13-3.27,1.74-.46.26-.92.57-1.2,1.02-.35.55-.39,1.24-.43,1.9-.12,2.51-.04,5.13-.37,7.62-.28,2.12-1.17,4.27-1.65,6.38-.28,1.24-.39,2.45-.17,3.71.2,1.13.63,2.32.16,3.44-.09.21-.2.4-.23.62-.03.22.02.44.08.65.15.58.3,1.16.45,1.74.05.21.11.43.05.63-.09.34-.44.54-.74.73-1.44.95-2.02,2.6-1.8,4.24.26,1.97.07,4.01,0,6.02-.17,4.43-.33,8.88.22,13.29.41,3.26.66,6.69,1.42,9.86.93,3.88,4.1,6.89,5,11.76Z"/>
          <g>
            <path class="cls-10" d="m24.21,104.43c-1.38-3.6-2.37-7.39-2.67-11.27-.13-1.94-.13-3.88.02-5.83.15-1.96.66-3.89,1.43-5.7,1.52-3.64,3.99-6.72,5.95-9.97,1.94-3.27,3.02-6.98,4.19-10.65.6-1.84,1.23-3.68,2.01-5.48.72-1.87,2.05-3.47,3.41-4.84,1.36-1.39,2.78-2.68,3.86-4.21,1.1-1.51,1.66-3.32,2.19-5.18.27-.98.84-1.88,1.41-2.65.56-.78,1.16-1.55,1.74-2.32l3.5-4.63c1.18-1.51,2.35-3.12,3.97-4.25.81-.57,1.73-.91,2.58-1.34.85-.41,1.7-.98,2.08-1.89-.33.93-1.18,1.56-2.01,2.02-.85.47-1.74.85-2.5,1.43-1.52,1.16-2.61,2.77-3.73,4.33l-3.37,4.7c-.56.79-1.13,1.55-1.68,2.36-.55.8-1.02,1.57-1.24,2.46-.47,1.85-1.04,3.82-2.22,5.46-1.14,1.65-2.59,2.98-3.91,4.35-1.34,1.37-2.51,2.82-3.18,4.58-.75,1.75-1.35,3.57-1.94,5.41-1.19,3.65-2.32,7.43-4.36,10.81-2.06,3.32-4.45,6.35-6.03,9.82-1.67,3.44-1.77,7.37-1.66,11.19.12,3.84,1.01,7.62,2.18,11.3Z"/>
            <path class="cls-10" d="m55.08,16.98c.61-1.38,1.55-2.61,2.51-3.74l1.44-1.69c.46-.56.93-1.12,1.15-1.71.26-.57.19-1.19.07-1.93-.11-.72-.24-1.5-.25-2.26-.08-1.49.06-2.97-.57-4.35.99,1.19,1.15,2.85,1.35,4.28.1.73.24,1.42.4,2.16.15.71.28,1.64-.07,2.47-.34.8-.87,1.39-1.37,1.96-.52.55-1.04,1.09-1.58,1.6-1.06,1.04-2.15,2.03-3.08,3.21Z"/>
          </g>
        </g>
        <g>
          <path class="cls-4" d="m52.54,20.82c-.59.57-1.16,1.15-1.73,1.73-.57.6-1.19,1.2-1.79,1.77-1.22,1.13-2.3,2.25-3.31,3.51-1.99,2.51-3.51,5.39-4.94,8.35-.71,1.47-1.41,2.99-2.19,4.46-.77,1.47-1.59,2.91-2.41,4.34-1.65,2.86-3.33,5.69-4.77,8.62-1.45,2.93-2.61,6.02-3.92,9.05-.65,1.51-1.33,3.05-2.18,4.48-.82,1.44-1.7,2.83-2.4,4.3-.7,1.47-1.23,3.02-1.29,4.65-.08,1.62.11,3.29-.1,4.94-.33,3.28-.81,6.55-.59,9.85-.3-3.29.11-6.6.36-9.87.16-1.63-.06-3.27-.02-4.94.02-1.68.53-3.33,1.21-4.84.68-1.52,1.53-2.95,2.31-4.39.8-1.43,1.42-2.93,2.04-4.46,1.23-3.05,2.32-6.16,3.73-9.18,2.82-6.03,6.43-11.54,8.95-17.62,1.36-3.01,2.86-6.04,4.91-8.76,1.01-1.35,2.21-2.62,3.36-3.78.58-.59,1.12-1.16,1.66-1.78.55-.62,1.12-1.24,1.69-1.84l1.43,1.4Z"/>
          <path class="cls-4" d="m54.12,5.09c0,2.63-.19,5.26-.54,7.88-.37,2.61-.89,5.22-1.81,7.75l-.93-.38c1.04-2.36,1.72-4.9,2.24-7.46.51-2.57.86-5.17,1.04-7.8Z"/>
          <path class="cls-4" d="m30.68,28.84c2.27-1.22,4.74-2.07,7.25-2.7,1.26-.31,2.55-.54,3.85-.66,1.3-.12,2.64-.14,3.98.13l-.24.97c-1.17-.31-2.44-.39-3.7-.36-1.26.04-2.54.18-3.79.4-2.51.46-5.01,1.13-7.35,2.21Z"/>
          <path class="cls-4" d="m23.71,49.71c1-1.33,2.22-2.48,3.46-3.59,1.24-1.11,2.53-2.16,3.83-3.2l3.9-3.1c1.29-1.04,2.58-2.08,3.75-3.21l.68.73c-1.28,1.12-2.63,2.09-3.98,3.07l-4.05,2.9c-1.34.97-2.68,1.96-3.97,2.99-1.28,1.04-2.56,2.12-3.62,3.4Z"/>
          <path class="cls-4" d="m40.47,37.5c-.4,1.71-.73,3.46-1.12,5.2-.4,1.73-.82,3.48-1.54,5.11.57-1.68.81-3.45,1.05-5.2.23-1.76.39-3.52.64-5.3l.98.19Z"/>
          <path class="cls-4" d="m31.82,53.18c-.11,1.59-.4,3.09-.66,4.61-.28,1.51-.58,3.02-.9,4.52.16-1.53.29-3.06.4-4.58.1-1.52.21-3.07.16-4.55h1Z"/>
          <path class="cls-4" d="m50.58,20.31c1.46-.49,2.93-.93,4.41-1.32.74-.2,1.48-.38,2.24-.53.75-.12,1.52-.34,2.28-.16-.76-.1-1.49.2-2.22.4-.72.23-1.44.49-2.14.77-1.41.55-2.82,1.14-4.19,1.78l-.37-.93Z"/>
        </g>
        <g class="cls-24">
          <g>
            <path class="cls-12" d="m42.64,17.51c-1.08-.15-2.23-.05-2.6.34-1.21,1.3.71,2.17,1.82,2.12.47-.02,2.91-.41,2.93-1.22.02-.65-1.03-1.08-2.16-1.24Z"/>
            <path class="cls-12" d="m50.82,11.92c-2.2.72-.69,3.53,1.53,2.6,1.91-.8.62-2.9-1.53-2.6Z"/>
            <path class="cls-12" d="m49.78,7.74c-.34.03-1.32.37-1.16.91.18.63,1.77.37,2.19.23,1.48-.49,1.38-1.7-1.02-1.15Z"/>
            <path class="cls-12" d="m30.86,32.78c-2.04.12-4.61,2.56-1.04,2.21,1.85-.18,3.37-1.73,1.04-2.21Z"/>
            <path class="cls-12" d="m34.7,29.75c.23-1.29,4.26-3.05,4.04-1.03-.14,1.28-3.76,3.01-4.04,1.03Z"/>
            <path class="cls-12" d="m45.57,31.59c-.17.11-.33.25-.46.41-.38.48-1.1,1.57-.39,2.08.78.56,2.27-.73,2.65-1.3,1.13-1.69-.69-1.92-1.8-1.19Z"/>
            <path class="cls-12" d="m48.16,26.18c1.05-.35,2.61.82.99,1.77-1.2.7-2.49-.66-1.31-1.59.1-.08.21-.14.33-.17Z"/>
            <path class="cls-12" d="m45.29,13.23c-.47-.17-1.07-.2-1.36-.08-.75.31-.97.75-.2,1.27.43.29,1.69.24,2.04-.19.38-.48.03-.82-.48-1Z"/>
            <path class="cls-12" d="m24.53,39.53c1.65-1.78,3.38.26,1.5,1.82-.45.37-1.88,1.29-2.48.86-.62-.44-.19-1.82.97-2.69Z"/>
            <path class="cls-12" d="m34.44,37.71c-.42.75-.68,1.73-.28,2.1.76.69,2.3-.66,2.63-1.26.6-1.09-.39-2.48-1.61-1.75-.23.14-.51.49-.74.91Z"/>
            <path class="cls-12" d="m26.57,50.72c-1.16,1.24-1.98,3.76.06,2.88.92-.4,2.27-1.7,1.79-2.85-.42-1.02-1.19-.73-1.86-.02Z"/>
            <path class="cls-12" d="m21.78,57.77c1.52-1.26,2.63.93,1.3,1.87-1.61,1.14-3.36-.53-1.3-1.87Z"/>
            <path class="cls-12" d="m20.51,66.6c.59.16,1.21.14,1.39-.13.59-.9-.48-1.62-1.08-1.64-.25,0-1.56.17-1.53.76.02.47.61.84,1.22,1.01Z"/>
            <path class="cls-12" d="m35.49,25.1c2.2-.72.69-3.53-1.53-2.6-1.91.8-.62,2.9,1.53,2.6Z"/>
            <path class="cls-12" d="m27.02,70.01c1.1,0,2.38-1.67.46-1.57-.99.05-1.75,1.12-.46,1.57Z"/>
            <path class="cls-12" d="m20.47,79.5c-.06.94-2.17,2.04-2.14.57.02-.93,1.9-2.03,2.14-.57Z"/>
            <path class="cls-12" d="m57.32,8.48c.09-.08.17-.17.23-.28.18-.33.52-1.1.12-1.5-.45-.45-1.2.43-1.38.83-.53,1.19.46,1.44,1.03.95Z"/>
            <path class="cls-12" d="m31.49,46.1c-1.05.35-2.61-.82-.99-1.77,1.2-.7,2.49.66,1.31,1.59-.1.08-.21.14-.33.17Z"/>
            <path class="cls-12" d="m21.5,53.12c.47.17,1.07.2,1.36.08.75-.31.97-.75.2-1.27-.43-.29-1.69-.24-2.04.19-.38.48-.03.82.48,1Z"/>
            <path class="cls-12" d="m48.52,18.25c-.81,1.23-1.84-.35-.9-1.4.22-.25.96-.86,1.3-.52.36.35.18,1.34-.4,1.93Z"/>
            <path class="cls-12" d="m46.87,23.27c.42-.75.68-1.73.28-2.1-.76-.69-2.3.66-2.63,1.26-.6,1.09.39,2.48,1.61,1.75.23-.14.51-.49.74-.91Z"/>
            <path class="cls-12" d="m35.56,50.26c.75-1.52.8-4.18-.89-2.73-.76.65-1.68,2.28-.89,3.25.69.85,1.35.35,1.78-.52Z"/>
            <path class="cls-12" d="m57.08,23.16c-1.52,1.26-2.63-.93-1.3-1.87,1.61-1.14,3.36.53,1.3,1.87Z"/>
          </g>
        </g>
      </g>
      <g>
        <g>
          <path class="cls-3" d="m74.76,22.34c-.18-.79-.38-1.49-.47-1.85-.73-2.76-1.19-5.46-.95-8.24.21-2.48.36-2.8,2.14-1.51,1.4,1.1,2.87,2.04,4.16,3.16,2.72,2.36,3.41,5.77,6.31,7.94,1.64,1.19,2.54,2.12,3.23,4.52.48,2.03.41,3.19,1.9,4.69,3.26,3.23,7.46,4.67,6.34,10.5-.26,1.78-1.24,3.43-1.28,5.16.12,1.97,1.06,3.04,1.9,4.69,1.72,3.45.82,6.38,1.25,10.13.14,2.54,1.62,4.47,1.59,7.2-.04,2.72-.76,5.46-.9,8.21-.25,2.77-.72,5.6-.73,8.46.09,1.84.68,3.84.31,5.64-2.19-3.48-5-6.25-8.12-7.94-3.27-1.8-6.15-3.41-8.44-6.86-2.03-2.81-3.9-5.94-6.04-8.72-2.03-2.81-4.97-4.68-6.89-7.52-2.23-3.19-1.97-7.39-4.42-10.53-2.17-2.92-4.36-4.97-4.67-9.18-.14-1.54.19-3.05-.05-4.56-.31-1.78-1.27-2.98-2.01-4.67-1.93-3.83-.19-6.1-.7-9.69-.44-3.32-3.14-6.55,1-7.81,2.34-.69,4.59,1.63,6.5,3.47,2.33,2.16,4.32,4.83,6.57,7.16.53.54,1.44,1.95,2.2,1.74.85-.24.61-2.08.27-3.6Z"/>
          <g>
            <path class="cls-10" d="m94.97,85.61c-.78-.61-1.6-1.18-2.44-1.68-.84-.5-1.75-.91-2.63-1.38-1.75-.94-3.5-1.99-4.99-3.38-.75-.69-1.43-1.46-2.01-2.29-.58-.81-1.16-1.61-1.73-2.44-1.13-1.64-2.22-3.3-3.37-4.9-.56-.8-1.15-1.61-1.74-2.38-.6-.75-1.28-1.46-1.98-2.15-1.39-1.39-2.93-2.72-4.08-4.42-1.22-1.68-1.77-3.69-2.25-5.6-.46-1.92-.96-3.85-2.11-5.5,1.33,1.51,1.97,3.49,2.58,5.37.58,1.9,1.19,3.77,2.4,5.28,1.18,1.53,2.65,2.84,4.1,4.22.72.69,1.43,1.41,2.08,2.2.64.8,1.23,1.58,1.81,2.4,1.14,1.64,2.21,3.32,3.3,4.97,1.12,1.64,2.16,3.32,3.52,4.69,1.35,1.39,3,2.49,4.69,3.51.83.53,1.71,1,2.53,1.58.82.57,1.59,1.21,2.3,1.91Z"/>
            <path class="cls-10" d="m74.5,25.95c.36-.18.41-.58.42-.93,0-.36-.05-.73-.13-1.1-.14-.73-.35-1.45-.58-2.17-.45-1.43-.88-2.93-1.13-4.45-.24-1.53-.34-3.1-.17-4.65.1-.78.16-1.51.47-2.32.09-.18.25-.45.55-.5.28-.03.48.08.65.18.34.21.62.47.9.73-.34-.18-.68-.36-1.02-.49-.17-.07-.35-.1-.45-.05-.09.03-.14.15-.18.31-.14.65-.12,1.46-.14,2.19-.01,1.49.12,2.97.37,4.44.22,1.48.59,2.92.9,4.43.17.74.28,1.52.31,2.3,0,.39-.01.79-.09,1.18-.06.37-.27.84-.69.9Z"/>
          </g>
        </g>
        <g>
          <path class="cls-4" d="m75.82,12.67c.12,1.71.75,3.32,1.34,4.92.59,1.6,1.26,3.2,1.52,4.94.27,1.73.12,3.51-.19,5.2-.31,1.7-.63,3.35-.62,5l-1-.02c.07-1.77.5-3.48.88-5.13.39-1.65.61-3.32.43-4.99-.16-1.67-.75-3.29-1.26-4.92-.51-1.63-1.07-3.28-1.11-5.01Z"/>
          <path class="cls-4" d="m76.99,33.06c-1.85-1.1-3.37-2.57-4.75-4.12-1.39-1.55-2.61-3.23-3.83-4.87-1.24-1.63-2.54-3.22-3.97-4.69-1.43-1.45-2.96-2.89-4.85-3.73,1.92.77,3.53,2.15,5.02,3.55,1.5,1.42,2.87,2.97,4.19,4.56,1.3,1.61,2.56,3.21,3.99,4.67,1.41,1.46,2.95,2.81,4.69,3.75l-.49.87Z"/>
          <path class="cls-4" d="m70.91,27.34c-1.1.03-2.1-.16-3.1-.33-.99-.18-1.98-.37-2.96-.5-.99-.12-1.98-.19-2.96-.06-.97.13-1.95.51-2.63,1.27.61-.82,1.59-1.3,2.58-1.52,1-.22,2.04-.24,3.05-.2,1.02.05,2.02.16,3.02.25.99.09,2,.19,2.91.08l.09,1Z"/>
          <path class="cls-4" d="m76.82,32.8c-1.4.29-2.78.64-4.08,1.18-1.31.51-2.49,1.36-3.78,2.04-1.26.7-2.52,1.41-3.69,2.24-1.17.83-2.25,1.81-3.03,3.03.71-1.26,1.75-2.32,2.88-3.23,1.13-.91,2.36-1.7,3.58-2.47.61-.39,1.22-.77,1.81-1.18.61-.42,1.26-.78,1.92-1.11,1.33-.65,2.75-1.1,4.16-1.47l.23.97Z"/>
          <path class="cls-4" d="m77.94,31.84c1.9,4.52,3.92,9.03,5.72,13.64.9,2.3,1.74,4.64,2.48,7.01l2.11,7.08c2.88,9.4,6.2,18.67,9.66,27.89-3.77-9.09-7.4-18.26-10.61-27.58l-2.34-7c-.8-2.31-1.71-4.58-2.68-6.83-1.93-4.5-4.09-8.92-6.16-13.4l1.83-.81Z"/>
          <path class="cls-4" d="m98.48,66.32c-1.72.09-3.43-.45-5.01-1.09-1.6-.65-3.13-1.44-4.69-2.07l.42-.91c1.54.81,2.97,1.74,4.48,2.52,1.49.78,3.08,1.47,4.8,1.55Z"/>
          <path class="cls-4" d="m89.12,63.01c-.92.55-1.69,1.43-2.34,2.38-.65.96-1.21,2-1.72,3.07-1.02,2.13-1.83,4.38-2.82,6.55.83-2.23,1.48-4.52,2.36-6.74.44-1.11.93-2.22,1.54-3.27.62-1.04,1.37-2.07,2.44-2.83l.53.85Z"/>
          <path class="cls-4" d="m80.69,40.66c-.56,1.29-1.54,2.1-2.12,3.07l-.02.03h0c-1.66,2.26-2.7,4.94-3.65,7.62-.95,2.69-1.82,5.44-3.18,7.96,1.23-2.59,1.96-5.35,2.79-8.09.82-2.73,1.74-5.5,3.37-7.96l-.02.03c.64-1.14,1.54-2.02,1.9-3.02l.93.36Z"/>
          <path class="cls-4" d="m96.04,52.61c-2.47-.99-4.76-2.4-6.99-3.84-2.23-1.44-4.46-2.89-6.83-3.98l.45-.89c4.78,2.56,8.54,6.44,13.38,8.72Z"/>
          <path class="cls-4" d="m93.6,37.47c-1.37-.41-2.69-.98-3.98-1.61-.64-.31-1.28-.64-1.94-.88l-2.03-.68c-1.35-.44-2.71-.83-4.1-1.07-.68-.13-1.32-.13-2.02-.05-.7.09-1.49.13-2.23.05l.12-.99c.67.11,1.33.11,2.05.07.72-.05,1.52,0,2.24.19,1.41.33,2.78.81,4.12,1.34l1.99.81c.68.29,1.29.66,1.91,1,1.24.7,2.52,1.35,3.86,1.84Z"/>
          <path class="cls-4" d="m86.13,24.09c-1.34-.07-2.69.13-3.86.7-1.18.56-2.26,1.36-3.41,2.08l-.48-.88c1.2-.56,2.39-1.23,3.71-1.67,1.32-.45,2.73-.48,4.05-.24Z"/>
        </g>
        <g class="cls-23">
          <g>
            <path class="cls-12" d="m68.72,29.75c1-.05,2.06.15,2.38.57,1.05,1.4-.77,2.08-1.79,1.93-.43-.06-2.66-.68-2.64-1.48.02-.65,1-.97,2.05-1.03Z"/>
            <path class="cls-12" d="m91.55,56.56c2,.92.46,3.56-1.54,2.44-1.72-.97-.42-2.93,1.54-2.44Z"/>
            <path class="cls-12" d="m95.97,56.2c.31.06,1.2.49,1.03,1.01-.2.6-1.65.21-2.03.03-1.34-.62-1.19-1.81,1-1.04Z"/>
            <path class="cls-12" d="m89.14,44.23c1.87.3,4.12,2.96.85,2.29-1.7-.35-3.02-2.03-.85-2.29Z"/>
            <path class="cls-12" d="m93.06,34.33c-.14-1.31-3.78-3.41-3.68-1.39.06,1.28,3.31,3.33,3.68,1.39Z"/>
            <path class="cls-12" d="m82.94,35.16c.16.13.29.28.4.45.33.51.93,1.66.25,2.09-.75.48-2.06-.93-2.38-1.53-.95-1.78.73-1.84,1.72-1.01Z"/>
            <path class="cls-12" d="m80.82,29.56c-.95-.44-2.45.57-1,1.66,1.07.81,2.33-.43,1.29-1.46-.09-.09-.19-.15-.29-.2Z"/>
            <path class="cls-12" d="m60.2,19.36c.44-.12.99-.1,1.26.04.68.38.86.83.12,1.28-.41.25-1.57.09-1.87-.38-.33-.51.01-.81.5-.95Z"/>
            <path class="cls-12" d="m81.34,63.41c-1.43-1.92-3.13-.05-1.48,1.67.39.41,1.67,1.45,2.24,1.09.6-.38.26-1.79-.76-2.75Z"/>
            <path class="cls-12" d="m91.65,40.31c.35.79.54,1.78.15,2.1-.74.61-2.09-.87-2.37-1.49-.5-1.14.49-2.42,1.57-1.58.21.16.45.54.64.97Z"/>
            <path class="cls-12" d="m73.89,39.76c1.01,1.33,1.63,3.92-.2,2.85-.83-.48-2.01-1.89-1.51-2.99.44-.97,1.14-.61,1.71.15Z"/>
            <path class="cls-12" d="m65.86,42.83c-1.34-1.39-2.47.68-1.29,1.74,1.43,1.28,3.13-.22,1.29-1.74Z"/>
            <path class="cls-12" d="m80.85,50.56c-.55.1-1.13.03-1.28-.25-.5-.95.53-1.56,1.08-1.52.23.02,1.43.31,1.37.89-.04.47-.6.77-1.18.88Z"/>
            <path class="cls-12" d="m68.6,50.6c-2-.92-.46-3.56,1.54-2.44,1.72.97.42,2.93-1.54,2.44Z"/>
            <path class="cls-12" d="m95.32,73.22c-1.01-.09-2.11-1.87-.35-1.6.92.14,1.55,1.27.35,1.6Z"/>
            <path class="cls-12" d="m79.84,68.08c.01.94,1.9,2.22,1.95.76.03-.92-1.65-2.19-1.95-.76Z"/>
            <path class="cls-12" d="m74.47,17.58c-.08-.08-.15-.18-.2-.3-.15-.35-.43-1.14-.03-1.5.44-.4,1.08.54,1.23.95.43,1.23-.5,1.38-1,.85Z"/>
            <path class="cls-12" d="m94.14,50.4c.95.44,2.45-.57,1-1.66-1.07-.81-2.33.43-1.29,1.46.09.09.19.15.29.2Z"/>
            <path class="cls-12" d="m94.3,62.91c-.44.12-.99.1-1.26-.04-.68-.38-.86-.83-.12-1.28.41-.25,1.57-.09,1.87.38.33.51-.01.81-.5.95Z"/>
            <path class="cls-12" d="m80.9,21.66c.69,1.3,1.72-.17.9-1.31-.19-.27-.84-.94-1.17-.64-.35.32-.24,1.32.27,1.95Z"/>
            <path class="cls-12" d="m82.16,26.79c-.35-.79-.54-1.78-.15-2.1.74-.61,2.09.87,2.37,1.49.5,1.14-.49,2.42-1.57,1.58-.21-.16-.45-.54-.64-.97Z"/>
            <path class="cls-12" d="m87.65,52.86c-.62-1.58-.53-4.22.96-2.63.67.72,1.43,2.42.66,3.31-.68.78-1.27.22-1.62-.68Z"/>
            <path class="cls-12" d="m65.08,34.76c1.34,1.39,2.47-.68,1.29-1.74-1.43-1.28-3.13.22-1.29,1.74Z"/>
            <path class="cls-12" d="m88.62,76.19c-.78-.7-1.44-1.6-1.41-2.1.12-1.66,1.9-.77,2.57.07.28.35,1.55,2.38,1.03,2.87-.42.4-1.37-.11-2.19-.84Z"/>
            <path class="cls-12" d="m85.48,42.55c-1.7-1.34.47-3.35,2.12-1.82,1.42,1.32-.34,2.77-2.12,1.82Z"/>
            <path class="cls-12" d="m88.31,69.5c-.46,0-.99-.16-1.2-.36-.56-.51-.62-.97.21-1.19.46-.12,1.54.32,1.71.82.19.54-.22.73-.72.73Z"/>
            <path class="cls-12" d="m98.72,68.45c.05.1.1.2.11.32.06.35.12,1.14-.35,1.37-.53.25-.91-.77-.95-1.18-.1-1.22.84-1.13,1.19-.52Z"/>
            <path class="cls-12" d="m78.01,56.7c-.33-1.35-1.71-.28-1.21.96.12.29.58,1.07.98.88.42-.2.57-1.13.23-1.84Z"/>
            <path class="cls-12" d="m98.23,76.86c.19,1.59-.56,3.96-1.6,2.14-.47-.82-.77-2.56.21-3.17.86-.53,1.28.12,1.4,1.03Z"/>
            <path class="cls-12" d="m84.42,57.25c-.94-1.6-2.57-.01-1.7,1.25,1.06,1.52,3.08.6,1.7-1.25Z"/>
          </g>
        </g>
      </g>
      <g>
        <path class="cls-13" d="m56.82,51.85c-1.25.65-1.95.28-3.21-.05-1.62-.42-2.5-.21-2.66,1.63-.09,1.07.34,2.11.28,3.18-.04.82-.18,1.44.02,2.25-.99.15-1.49-.48-1.72.88-.12.72-.11,1.71-.07,2.43-.69.02-1.27-.03-1.75.6-.56.74-.06,1.34-.02,2.18.09,1.81-.77,3.21-1.39,4.84-.35.93-.66,1.94-.59,2.93.07.99.56,1.85.73,2.82.32,1.85-.34,3.3-.94,4.99-.52,1.48-.55,2.42-.1,3.92.23.74.65,1.48.66,2.24.02,1.19-.46,2.31-.28,3.51.22,1.52.2,2.8-.05,4.32-.21,1.25-.84,2.6-.75,3.87.95-1.76,2.56-3.06,3.37-4.96.74-1.71,1.3-3.82,2.39-5.35.8-1.13,2.19-1.68,3.03-2.78.56-.73.64-1.59,1.18-2.3.62-.8,1.4-1.22,1.59-2.33.16-.96-.21-1.97-.13-2.92.15-1.99,2.82-2.66,3.08-4.67.16-1.26-.26-2.49-.13-3.72.11-1.08.82-1.72,1.27-2.67.61-1.29,1.14-2.36,1.97-3.53.69-.98,1.56-1.67,1.65-2.93.1-1.43-.89-2.52-.89-3.94,0-.87.65-2.39.22-3.2-.39-.74-1.37-.87-2.15-.84-.23,0-.63.27-.83.2-.43-.13-.58-.77-1.02-.85-1.22-.22-1.95,2.14-2.66,2.93.09-.87.58-1.91-.1-2.7Z"/>
        <g class="cls-24">
          <path class="cls-12" d="m55.93,54.62c-.46-.23-.92,0-.98.68-.05.57,0,1.55.65,1.8,1.04.4,1.19-1.49.79-2.06-.14-.2-.3-.34-.46-.42Z"/>
          <path class="cls-12" d="m57.9,62.08c-.13-.03-.27-.01-.41.06-.26.15-.45.65-.53.92-.19.63,0,1.24.77.97.57-.2.81-.58.8-1.17,0-.33-.29-.71-.63-.79Z"/>
          <path class="cls-12" d="m61.72,58.84c-.36,0-.75.16-.8.57-.05.41.41.42.71.38.23-.03.59-.22.7-.44.15-.3-.21-.51-.61-.51Z"/>
          <path class="cls-12" d="m53.34,58.28c-.47-.23-1.17-.21-1.43.17-.27.41.1.98.49,1.16.5.24,1.62-.23,1.38-.9-.07-.19-.23-.34-.44-.44Z"/>
          <path class="cls-12" d="m51.23,61.39c-.24,0-.48.05-.59.12-.17.12-.31.31-.35.52-.12.52.32.67.75.54.31-.09,1.03-.49.87-.93-.07-.18-.37-.25-.67-.25Z"/>
          <path class="cls-12" d="m48.89,77.19c-.81-.34-1.64,1.41-1.1,1.88.56.49,1.67-1.2,1.1-1.88Z"/>
          <path class="cls-12" d="m51.96,78.82c-.71-.2-1.15,3.16.1,2.92,1.29-.25.28-2.45-.1-2.92Z"/>
          <path class="cls-12" d="m56.1,72.89c.08-.04.17-.07.28-.08.81-.07,1.53.95.66,1.44-1.47.81-1.69-.94-.94-1.35Z"/>
          <path class="cls-12" d="m55.53,68.38c-.16.03-.33.12-.43.24-.16.2-.27.51.04.64.35.15.76-.17.8-.53.04-.3-.18-.39-.41-.35Z"/>
          <path class="cls-12" d="m54.91,70.6c-.12,0-.25.08-.33.21-.03.06-.06.12-.08.18-.03.15.08.32.23.35.22.05.44-.21.45-.41.02-.24-.13-.35-.29-.34Z"/>
          <path class="cls-12" d="m56.97,70.49c-.4,0-.77.07-.71.63.08.67,1.36,1.19,1.97,1.1.63-.09.74-.55.51-1.07-.28-.62-.89-.65-1.48-.65-.09,0-.19,0-.28,0Z"/>
          <path class="cls-12" d="m48.69,86.51c-.21.41-.66,1.65-.22,2.07.48.45.73-.11.92-.52.36-.75.58-2.13-.71-1.55Z"/>
          <path class="cls-12" d="m52.33,83.59c1.41.37.89,1.91-.45,1.86-.6-.02-.79-.21-.71-.81.1-.78.8-1.11,1.16-1.05Z"/>
          <path class="cls-12" d="m46.84,81.23c-1.38.74-.8,2.8.6,1.49.3-.28.61-.73.53-1.19-.1-.6-.64-.67-1.13-.3Z"/>
          <path class="cls-12" d="m49.6,66.24c-.02-.1-.07-.19-.18-.27-.38-.28-1.05-.07-.86.47.26.75,1.12.26,1.05-.2Z"/>
          <path class="cls-12" d="m48.66,68.12c-.41.28-1.54,1.65-.27,1.2.59-.21,1.1-1.33.27-1.2Z"/>
          <path class="cls-12" d="m52.03,64.97c-.37.05-.75.33-.78.77-.04.53.33,1.38.98,1.01.28-.16.65-.86.6-1.19-.07-.46-.44-.63-.8-.58Z"/>
          <path class="cls-12" d="m62.17,61.37c-.46-.23-1.03.49-.71.91.42.56,1.38-.32.83-.83-.04-.03-.08-.06-.12-.08Z"/>
          <path class="cls-12" d="m60.29,53.42c.15-.02.3,0,.41.11.32.3.02.98-.33,1.12-.38.15-.86.03-.9-.44-.03-.35.41-.75.81-.8Z"/>
          <path class="cls-12" d="m59.27,60.4c.06,0,.12.03.18.06.35.16.28.62-.09.74-.24.08-.79-.08-.71-.4.07-.3.35-.44.62-.4Z"/>
          <path class="cls-12" d="m58.9,64.99c-.38-.21-.61.32-.42.59.38.56,1.13.02.42-.59Z"/>
          <path class="cls-12" d="m49.51,72.09c.28.03.53.2.5.48-.03.27-.45.47-.69.48-.36.01-.57-.27-.48-.61.07-.28.39-.39.67-.35Z"/>
          <path class="cls-12" d="m55.32,76.35c.36.26.21,1.18-.37,1.05-.52-.12-.54-.92-.04-1.09.18-.06.32-.03.42.04Z"/>
          <path class="cls-12" d="m46.74,84.46c.35.11.65-.32.41-.45-.25-.14-.67.26-.41.45Z"/>
          <path class="cls-12" d="m58.84,67.38c.3.07.39-.78-.12-.76-.54.03-.05.62.12.76Z"/>
          <path class="cls-12" d="m53.58,61.45c.16-.03.33-.12.43-.24.16-.2.27-.51-.04-.64-.35-.15-.76.17-.8.53-.04.3.18.39.41.35Z"/>
          <path class="cls-12" d="m54.96,81.54c.12,0,.25-.08.33-.21.03-.06.06-.12.08-.18.03-.15-.08-.32-.23-.35-.22-.05-.44.21-.46.41-.02.24.13.35.29.34Z"/>
          <path class="cls-12" d="m48.53,67.96c.56-.15.26-.7-.3-.4-.12.06-.24.17-.19.29.06.16.29.19.49.11Z"/>
          <path class="cls-12" d="m51.82,77.32s.04.05.09.08c.17.08.44.05.35-.1-.13-.2-.48-.1-.44.02Z"/>
          <path class="cls-12" d="m54.85,75.5c.32-.15,1.16-.91.17-.69-.46.1-.82.73-.17.69Z"/>
          <path class="cls-12" d="m47.65,74.81c.37-.05.75-.33.78-.77.04-.53-.33-1.38-.98-1.01-.28.16-.65.86-.6,1.19.07.46.44.63.8.58Z"/>
          <path class="cls-12" d="m55.07,72.51c-.28-.03-.53-.2-.5-.48.03-.27.45-.47.69-.48.36-.01.57.27.48.61-.07.28-.39.39-.67.35Z"/>
        </g>
        <g>
          <path class="cls-4" d="m57.14,59c-.13,1.65-.69,3.3-1.28,4.7-.59,1.41-1.05,2.84-1.54,4.32-.47,1.47-1.03,2.95-1.57,4.38-.27.72-.53,1.44-.77,2.16-.23.71-.49,1.51-.82,2.21-.66,1.44-1.36,2.74-1.78,4.22-.46,1.45-.82,2.95-1.08,4.45-.31,1.49-.27,3.04-.42,4.59-.07.77-.17,1.54-.38,2.3-.2.74-.53,1.49-1.11,2.01.55-.55.83-1.3.99-2.04.16-.75.22-1.51.25-2.28.07-1.53-.06-3.09.18-4.64.19-1.54.47-3.07.86-4.58.34-1.52,1.03-3,1.58-4.39.29-.71.47-1.39.68-2.16.21-.75.44-1.49.67-2.23.48-1.49.94-2.92,1.33-4.41.4-1.48.83-3,1.32-4.48.5-1.48.86-2.81.89-4.25l2,.14Z"/>
          <path class="cls-4" d="m53.5,53.91c.38,1.01.89,1.95,1.43,2.88.52.94,1.08,1.92,1.3,3.09l.12.83c.04.27.07.59.04.93-.06.71-.36,1.27-.53,1.73-.09.25-.14.39-.19.68l-.15.77-.3,1.53-1.95-.44.57-1.58.29-.78c.08-.24.24-.59.38-.83.29-.5.56-.89.65-1.26.05-.19.07-.42.07-.68v-.78c-.01-.98-.38-1.99-.76-2.99-.38-1.01-.76-2.04-.97-3.09Z"/>
          <path class="cls-4" d="m54.27,62.62c.33-.91.74-1.86,1.44-2.67.7-.82,1.62-1.31,2.45-1.68l.6-.27c.15-.07.3-.19.44-.33.29-.29.55-.67.89-1.02.72-.75,1.7-.81,2.32-1.5-.49.8-1.51,1.12-1.93,1.83-.24.35-.42.76-.7,1.18-.14.21-.31.42-.54.59l-.58.4c-.74.51-1.37,1.04-1.74,1.7-.38.65-.58,1.45-.71,2.27l-1.94-.5Z"/>
          <path class="cls-4" d="m49.46,64.42c.95-.14,1.59-.77,2.48-1.24.43-.24,1.02-.43,1.6-.44.54-.02.99,0,1.2-.12l.19,1.99c-.71-.03-1.18-.26-1.55-.38-.35-.13-.68-.15-1.13-.1-.84.1-1.85.5-2.79.29Z"/>
          <path class="cls-4" d="m54.73,63.04c1.01.2,1.43.84,1.73,1.32.3.51.48,1.01.63,1.51.29,1,.46,2,.55,3-.41-.91-.89-1.79-1.45-2.57-.28-.38-.59-.75-.9-1.01-.31-.28-.68-.36-.67-.26l.11-2Z"/>
          <path class="cls-4" d="m54.35,68.18c-.47,4.19-.6,8.52-1.35,12.73.09-4.28-.46-8.48-.65-12.8l2,.07Z"/>
          <path class="cls-4" d="m49.61,86.03c-.21-1.06-.23-2.15-.27-3.21-.02-.54-.06-1.06-.1-1.61-.02-.54-.04-1.14.27-1.73l-.05.2c-.18-1.26.41-2.43.88-3.41.5-1,.81-1.96,1.01-3.03.21-1.06.32-2.16.52-3.3.19-1.13.48-2.32,1.04-3.46l1.75.97c-.52.82-.88,1.8-1.16,2.84-.29,1.04-.52,2.15-.85,3.26-.31,1.1-.82,2.24-1.43,3.18-.58.95-1.14,1.87-1.1,2.88v.13s-.05.07-.05.07c-.24.34-.31.87-.34,1.39-.02.52-.03,1.08-.06,1.61-.06,1.07-.16,2.14-.05,3.21Z"/>
          <path class="cls-4" d="m47.75,76.14c.88-1.11,1.75-2.21,2.49-3.39.74-1.17,1.38-2.4,1.96-3.65l1.7,1.05c-.9,1.14-1.85,2.23-2.89,3.23-1.03,1.01-2.15,1.89-3.26,2.76Z"/>
          <path class="cls-4" d="m47.41,71.75c.51-.59,1.09-1.13,1.72-1.62.65-.48,1.23-.94,2.03-1.33.75-.34,1.44-.63,1.53-1.03.22-.46.15-1.26.66-2.29l1.68,1.09c-.14.15-.29.43-.44.79-.15.35-.32.79-.64,1.22-.31.46-.87.77-1.28.88-.43.14-.82.2-1.18.28-.66.15-1.42.5-2.1.81-.69.33-1.36.72-1.98,1.19Z"/>
        </g>
      </g>
    </g>
  </g>
</svg>